<?xml version="1.0" encoding="UTF-8"?>
<svg id="Capa_2" data-name="Capa 2" xmlns="http://www.w3.org/2000/svg" viewBox="0 0 1308.76 1391.96">
  <defs>
    <style>
      .cls-1, .cls-2, .cls-3, .cls-4, .cls-5 {
        fill: #fff;
      }

      .cls-6 {
        letter-spacing: .02em;
      }

      .cls-7 {
        letter-spacing: 0em;
      }

      .cls-8 {
        letter-spacing: 0em;
      }

      .cls-9 {
        letter-spacing: 0em;
      }

      .cls-10 {
        fill: #6a6a58;
        font-size: 8px;
      }

      .cls-10, .cls-2, .cls-3, .cls-5 {
        font-family: MyriadPro-Regular, 'Myriad Pro';
      }

      .cls-11, .cls-12, .cls-13, .cls-14, .cls-15, .cls-16, .cls-17, .cls-18, .cls-4, .cls-19 {
        stroke-miterlimit: 10;
      }

      .cls-11, .cls-12, .cls-13, .cls-18, .cls-19 {
        fill: none;
      }

      .cls-11, .cls-15, .cls-16, .cls-4 {
        stroke: #000;
      }

      .cls-20 {
        letter-spacing: 0em;
      }

      .cls-12 {
        stroke-dasharray: 0 0 12.28 12.28;
      }

      .cls-12, .cls-13, .cls-14, .cls-17, .cls-19 {
        stroke: #fff;
      }

      .cls-21 {
        letter-spacing: 0em;
      }

      .cls-22 {
        letter-spacing: 0em;
      }

      .cls-23 {
        letter-spacing: 0em;
      }

      .cls-24 {
        letter-spacing: 0em;
      }

      .cls-25 {
        letter-spacing: 0em;
      }

      .cls-26 {
        opacity: .33;
      }

      .cls-27 {
        letter-spacing: 0em;
      }

      .cls-28 {
        letter-spacing: -.06em;
      }

      .cls-14 {
        stroke-width: .75px;
      }

      .cls-29 {
        letter-spacing: 0em;
      }

      .cls-30 {
        letter-spacing: -.01em;
      }

      .cls-31 {
        letter-spacing: 0em;
      }

      .cls-32 {
        letter-spacing: -.01em;
      }

      .cls-15 {
        fill: #9cb8c6;
      }

      .cls-33 {
        letter-spacing: 0em;
      }

      .cls-34 {
        letter-spacing: -.01em;
      }

      .cls-35 {
        letter-spacing: 0em;
      }

      .cls-36 {
        letter-spacing: .01em;
      }

      .cls-37 {
        letter-spacing: -.03em;
      }

      .cls-38 {
        letter-spacing: 0em;
      }

      .cls-39 {
        letter-spacing: -.03em;
      }

      .cls-16 {
        fill: #2a4f65;
      }

      .cls-40 {
        letter-spacing: 0em;
      }

      .cls-18 {
        stroke: #343434;
      }

      .cls-2 {
        font-size: 20px;
      }

      .cls-41 {
        letter-spacing: 0em;
      }

      .cls-42 {
        letter-spacing: -.01em;
      }

      .cls-3 {
        font-size: 19px;
      }

      .cls-43 {
        letter-spacing: 0em;
      }

      .cls-44 {
        letter-spacing: -.03em;
      }

      .cls-45 {
        letter-spacing: 0em;
      }

      .cls-46 {
        letter-spacing: 0em;
      }

      .cls-47 {
        letter-spacing: .02em;
      }

      .cls-48 {
        letter-spacing: 0em;
      }

      .cls-49 {
        letter-spacing: 0em;
      }

      .cls-50 {
        letter-spacing: 0em;
      }

      .cls-51 {
        letter-spacing: 0em;
      }

      .cls-52 {
        letter-spacing: -.04em;
      }

      .cls-19 {
        stroke-dasharray: 0 0 12.12 12.12;
      }

      .cls-53 {
        letter-spacing: 0em;
      }

      .cls-54 {
        letter-spacing: 0em;
      }

      .cls-55 {
        letter-spacing: -.01em;
      }

      .cls-56 {
        letter-spacing: -.01em;
      }

      .cls-57 {
        letter-spacing: 0em;
      }

      .cls-58 {
        letter-spacing: 0em;
      }

      .cls-59 {
        letter-spacing: 0em;
      }

      .cls-5 {
        font-size: 30px;
      }
    </style>
  </defs>
  <g id="Capa_1-2" data-name="Capa 1">
    <path class="cls-4" d="M308.9,419.74l25.32-42.93,31.29-1.94,25.11,33.45,.29,11.42c-10.72,2.55-23.82,4.8-38.83,5.59-16.38,.86-30.73-.26-42.33-1.94-.28-1.22-.56-2.44-.85-3.65Z"/>
    <path class="cls-4" d="M334.22,376.81c-.2,.35,0,.79,.39,.85,2.12,.31,8.04,.94,13.8-.7l6.49-1.85c.35-.1,.52-.5,.34-.83l-9.05-16.21c-.21-.38-.77-.39-.99-.01l-10.99,18.75Z"/>
    <path class="cls-4" d="M308.9,419.74v65.8s35.56,6.88,52.49,3.44,29.51-13.55,29.51-13.55l-2.66-57.79s-19.49,6.69-41.07,6.69-38.27-4.6-38.27-4.6Z"/>
    <ellipse class="cls-15" cx="282.18" cy="420.82" rx="48.88" ry="31.13"/>
    <ellipse class="cls-16" cx="262.58" cy="416.18" rx="23.18" ry="14.76" transform="translate(-88.98 71.86) rotate(-13.35)"/>
    <ellipse class="cls-4" cx="203.61" cy="389.39" rx="23.18" ry="14.76" transform="translate(-84.39 57.52) rotate(-13.35)"/>
    <path class="cls-15" d="M277.17,491.29l-40.64-25.16c2.92-3.01,20.2-20.2,47.74-20,26.95,.19,43.77,16.89,46.79,20-12.37,8.39-24.74,16.77-37.12,25.16-1.28-.76-4.38-2.36-8.63-2.3-3.97,.06-6.86,1.54-8.14,2.3Z"/>
    <circle class="cls-15" cx="248.7" cy="451.94" r="5.73"/>
    <circle class="cls-15" cx="258.38" cy="448.07" r="5.73"/>
    <circle class="cls-15" cx="269.83" cy="446.22" r="5.73"/>
    <circle class="cls-15" cx="317.89" cy="451.94" r="5.73"/>
    <circle class="cls-15" cx="308.54" cy="448.07" r="5.73"/>
    <circle class="cls-15" cx="299.18" cy="446.14" r="5.73"/>
    <circle class="cls-15" cx="291.12" cy="444.2" r="5.73"/>
    <circle class="cls-15" cx="281.28" cy="444.2" r="5.73"/>
    <path class="cls-4" d="M195.56,431.14v22.66s-18.39-.89-17.9-9.6,17.9-13.06,17.9-13.06Z"/>
    <path class="cls-4" d="M254.13,363.52l-2.52,71.12s-23.61-10.16-49.74-5.32c-26.13,4.84-24.19,13.14-24.19,13.14l-.03-69.75s7.77-10.16,28.09-11.61c20.32-1.45,48.38,2.42,48.38,2.42Z"/>
    <path class="cls-4" d="M177.65,370.66c15.65-18.22,31.29-36.45,46.94-54.67,9.85,15.85,19.69,31.69,29.54,47.54,0,0-31.66-7.33-51.79-2.74-20.13,4.58-24.68,9.88-24.68,9.88Z"/>
    <polygon class="cls-4" points="211.43 331.32 233.3 330.01 224.59 315.99 211.43 331.32"/>
    <path class="cls-4" d="M236.53,510.49v51.29l87.09,1.94v-53.22s-9.65-11.13-39.82-11.13-47.27,11.13-47.27,11.13Z"/>
    <ellipse class="cls-4" cx="280.07" cy="561.29" rx="43.54" ry="14.03"/>
    <path class="cls-4" d="M235.88,591.28c-3.44,52.28-6.88,104.55-10.32,156.83,3.84-3.66,22.36-20.53,50.96-20.39,31.95,.16,51.49,21.41,54.53,24.84-2.48-52.91-4.96-105.82-7.44-158.73l-87.73-2.54Z"/>
    <path class="cls-4" d="M230.72,829.33l-5.16-81.28c4.45-4.07,22.8-19.88,50.96-20.32,30.82-.48,50.78,17.8,54.69,21.53-1.24,26.69-2.48,53.38-3.73,80.08-6.81-4.31-24.39-14.16-48.87-14.03-23.91,.13-41.07,9.71-47.9,14.03Z"/>
    <path class="cls-4" d="M231.37,834.16v300.94c8.03-4.51,25.12-12.68,48.22-13.06,25.04-.42,43.56,8.54,51.62,13.06-1.24-101.93-2.48-203.85-3.73-305.78-6.81-4.31-24.39-14.16-48.87-14.03-23.91,.13-41.07,9.71-47.9,14.03,.22,1.61,.43,3.23,.65,4.84Z"/>
    <polygon class="cls-4" points="341.68 879.92 335.87 1186.88 442.31 1186.88 385.08 879.92 341.68 879.92"/>
    <polygon class="cls-4" points="341.68 798.04 335.87 1105 442.31 1105 385.08 798.04 341.68 798.04"/>
    <path class="cls-4" d="M385.08,796.43s-33.73-67.09-37.6-67.09-5.83,68.7-5.83,68.7l43.43-1.61Z"/>
    <polygon class="cls-4" points="440.23 1093.81 483.68 1089.87 435.06 1066.07 440.23 1093.81"/>
    <polygon class="cls-4" points="219.65 878.3 225.46 1185.26 119.02 1185.26 176.25 878.3 219.65 878.3"/>
    <polygon class="cls-4" points="219.65 796.42 225.46 1103.37 119.02 1103.37 176.25 796.42 219.65 796.42"/>
    <path class="cls-4" d="M176.25,794.8s33.73-67.09,37.6-67.09c3.87,0,5.83,68.7,5.83,68.7l-43.43-1.61Z"/>
    <polygon class="cls-4" points="121.1 1092.19 77.65 1088.24 126.27 1064.45 121.1 1092.19"/>
    <polygon class="cls-4" points="116.54 1186.88 96.86 1208.32 129.12 1197.6 116.54 1186.88"/>
    <polygon class="cls-4" points="441.9 1189.09 459.37 1212.36 428.33 1198.52 441.9 1189.09"/>
    <ellipse class="cls-4" cx="280.07" cy="593.14" rx="43.54" ry="14.03"/>
    <ellipse class="cls-4" cx="281.53" cy="1135.1" rx="49.68" ry="14.03"/>
    <ellipse class="cls-4" cx="389.09" cy="1185.13" rx="53.22" ry="19.43"/>
    <ellipse class="cls-4" cx="389.09" cy="1103.25" rx="53.22" ry="19.43"/>
    <ellipse class="cls-4" cx="172.24" cy="1183.51" rx="53.22" ry="19.43"/>
    <ellipse class="cls-4" cx="172.24" cy="1101.63" rx="53.22" ry="19.43"/>
    <path class="cls-15" d="M256.68,478.61c1.72-1.78,11.77-11.88,27.91-11.91,16.24-.03,26.36,10.13,28.07,11.91"/>
    <path class="cls-4" d="M347.18,358.06l24.03,41.21,.06,68.41s18.71,6.45,19.35,9.68,0-69.03,0-69.03c0,0-33.71-49.04-43.44-50.26Z"/>
    <path class="cls-17" d="M593.22,314.89v894.35"/>
    <g class="cls-26">
      <g>
        <line class="cls-13" x1="224.59" y1="315.99" x2="230.59" y2="315.99"/>
        <line class="cls-19" x1="242.71" y1="315.99" x2="575.89" y2="315.99"/>
        <line class="cls-13" x1="581.94" y1="315.99" x2="587.94" y2="315.99"/>
      </g>
    </g>
    <g class="cls-26">
      <g>
        <line class="cls-13" x1="96.86" y1="1214.57" x2="102.86" y2="1214.57"/>
        <line class="cls-12" x1="115.15" y1="1214.57" x2="575.8" y2="1214.57"/>
        <line class="cls-13" x1="581.94" y1="1214.57" x2="587.94" y2="1214.57"/>
      </g>
    </g>
    <text class="cls-2" transform="translate(634.84 777.42)"><tspan x="0" y="0">30.84 m</tspan></text>
    <text class="cls-2" transform="translate(96.86 1265.77)"><tspan class="cls-45" x="0" y="0">C</tspan><tspan x="11.46" y="0">a</tspan><tspan class="cls-24" x="21.1" y="0">r</tspan><tspan x="27.48" y="0">ga útil: 4.730 kg</tspan></text>
    <text class="cls-2" transform="translate(97.68 1295.5)"><tspan class="cls-37" x="0" y="0">P</tspan><tspan class="cls-9" x="10.14" y="0">eso lanzamie</tspan><tspan class="cls-51" x="118.34" y="0">n</tspan><tspan class="cls-25" x="129.36" y="0">t</tspan><tspan class="cls-9" x="135.86" y="0">o: 281.375 kg</tspan></text>
    <text class="cls-2" transform="translate(2.68 624.36)"><tspan x="0" y="0">Lanzado</tspan><tspan class="cls-55" x="70.64" y="0">r</tspan><tspan x="76.98" y="0">es</tspan><tspan x="0" y="24">sujetados</tspan></text>
    <text class="cls-2" transform="translate(266.55 248.46)"><tspan class="cls-32" x="0" y="0">C</tspan><tspan x="11.36" y="0">ubie</tspan><tspan class="cls-47" x="48.46" y="0">r</tspan><tspan class="cls-27" x="55.48" y="0">ta</tspan></text>
    <text class="cls-5" transform="translate(0 25.11)"><tspan class="cls-44" x="0" y="0">V</tspan><tspan x="15.75" y="0">os</tspan><tspan class="cls-33" x="44.1" y="0">t</tspan><tspan class="cls-49" x="53.85" y="0">ok K (8K72</tspan><tspan class="cls-6" x="184.32" y="0">K</tspan><tspan class="cls-49" x="201.27" y="0">)</tspan></text>
    <text class="cls-2" transform="translate(34.8 489.95)"><tspan x="0" y="0">VOS</tspan><tspan class="cls-39" x="34.8" y="0">T</tspan><tspan x="44.2" y="0">OK</tspan></text>
    <text class="cls-2" transform="translate(884.41 531.02)"><tspan x="0" y="0">VOS</tspan><tspan class="cls-39" x="34.8" y="0">T</tspan><tspan x="44.2" y="0">OK</tspan></text>
    <text class="cls-2" transform="translate(35.76 551.66)"><tspan class="cls-57" x="0" y="0">E</tspan><tspan x="9.78" y="0">tapa final</tspan></text>
    <text class="cls-2" transform="translate(420.25 685.53)"><tspan class="cls-57" x="0" y="0">E</tspan><tspan x="9.78" y="0">tapa p</tspan><tspan class="cls-22" x="62.68" y="0">r</tspan><tspan x="69.3" y="0">incipal</tspan></text>
    <text class="cls-2" transform="translate(1093.94 924.67)"><tspan class="cls-56" x="0" y="0">C</tspan><tspan x="11.38" y="0">ohe</tspan><tspan class="cls-41" x="43.48" y="0">t</tspan><tspan x="49.98" y="0">e de </tspan><tspan class="cls-55" x="89.78" y="0">r</tspan><tspan x="96.12" y="0">e</tspan><tspan class="cls-25" x="106.14" y="0">g</tspan><tspan class="cls-38" x="117.2" y="0">r</tspan><tspan x="123.54" y="0">eso a tie</tspan><tspan class="cls-58" x="191.9" y="0">r</tspan><tspan class="cls-35" x="198.52" y="0">r</tspan><tspan x="204.96" y="0">a</tspan></text>
    <text class="cls-2" transform="translate(1089.12 611.52)"><tspan x="0" y="0">Ópticas</tspan></text>
    <text class="cls-2" transform="translate(1137.2 796.42)"><tspan class="cls-28" x="0" y="0">T</tspan><tspan class="cls-27" x="8.66" y="0">anques de </tspan><tspan class="cls-34" x="99.4" y="0">o</tspan><tspan x="110.1" y="0">xígeno </tspan><tspan x="0" y="24">y nit</tspan><tspan class="cls-38" x="36.06" y="24">r</tspan><tspan x="42.4" y="24">ógeno</tspan></text>
    <text class="cls-10" transform="translate(80.91 1334.73)"><tspan x="0" y="0">Esta </tspan><tspan class="cls-55" x="15.3" y="0">v</tspan><tspan x="19.07" y="0">ersión </tspan><tspan class="cls-55" x="41.26" y="0">r</tspan><tspan x="43.8" y="0">eali</tspan><tspan class="cls-21" x="55.42" y="0">z</tspan><tspan x="58.79" y="0">ó 13 lanzamie</tspan><tspan class="cls-31" x="104.8" y="0">n</tspan><tspan class="cls-41" x="109.21" y="0">t</tspan><tspan x="111.81" y="0">os en </tspan><tspan class="cls-41" x="131.21" y="0">t</tspan><tspan x="133.81" y="0">otal e</tspan><tspan class="cls-31" x="152.29" y="0">n</tspan><tspan class="cls-50" x="156.7" y="0">t</tspan><tspan class="cls-55" x="159.35" y="0">r</tspan><tspan x="161.89" y="0">e 1960 y 1964. </tspan><tspan class="cls-56" x="210.93" y="0">C</tspan><tspan x="215.48" y="0">on ella se lanza</tspan><tspan class="cls-55" x="265.68" y="0">r</tspan><tspan x="268.22" y="0">on seis misiones t</tspan><tspan class="cls-40" x="326.59" y="0">r</tspan><tspan x="329.24" y="0">ipulada</tspan><tspan class="cls-56" x="354.18" y="0">s</tspan><tspan x="357.26" y="0">, </tspan><tspan class="cls-41" x="360.62" y="0">t</tspan><tspan x="363.22" y="0">odas </tspan><tspan class="cls-41" x="380.84" y="0">c</tspan><tspan x="384.38" y="0">on </tspan><tspan class="cls-43" x="394.9" y="0">é</tspan><tspan x="398.89" y="0">xi</tspan><tspan class="cls-41" x="404.46" y="0">t</tspan><tspan x="407.06" y="0">o</tspan></text>
    <ellipse class="cls-17" cx="203.61" cy="393.38" rx="23.18" ry="14.76" transform="translate(-85.31 57.63) rotate(-13.35)"/>
    <g>
      <ellipse class="cls-17" cx="253.55" cy="1138.48" rx="14.92" ry="7.38"/>
      <ellipse class="cls-17" cx="279.22" cy="1149.39" rx="14.92" ry="7.38"/>
      <ellipse class="cls-17" cx="307.78" cy="1138.48" rx="14.92" ry="7.38"/>
      <ellipse class="cls-17" cx="279.22" cy="1129.49" rx="14.92" ry="7.38"/>
      <ellipse class="cls-17" cx="253.55" cy="1143.38" rx="14.92" ry="7.38"/>
      <ellipse class="cls-17" cx="279.22" cy="1154.29" rx="14.92" ry="7.38"/>
      <ellipse class="cls-17" cx="307.78" cy="1143.38" rx="14.92" ry="7.38"/>
      <ellipse class="cls-17" cx="279.22" cy="1134.4" rx="14.92" ry="7.38"/>
    </g>
    <g>
      <ellipse class="cls-17" cx="361.98" cy="1108.55" rx="14.92" ry="7.38"/>
      <ellipse class="cls-17" cx="387.65" cy="1119.46" rx="14.92" ry="7.38"/>
      <ellipse class="cls-17" cx="416.21" cy="1108.55" rx="14.92" ry="7.38"/>
      <ellipse class="cls-17" cx="387.65" cy="1099.57" rx="14.92" ry="7.38"/>
      <ellipse class="cls-17" cx="361.98" cy="1113.46" rx="14.92" ry="7.38"/>
      <ellipse class="cls-17" cx="387.65" cy="1124.37" rx="14.92" ry="7.38"/>
      <ellipse class="cls-17" cx="416.21" cy="1113.46" rx="14.92" ry="7.38"/>
      <ellipse class="cls-17" cx="387.65" cy="1104.47" rx="14.92" ry="7.38"/>
    </g>
    <g>
      <ellipse class="cls-17" cx="145.12" cy="1105.14" rx="14.92" ry="7.38"/>
      <ellipse class="cls-17" cx="170.79" cy="1116.05" rx="14.92" ry="7.38"/>
      <ellipse class="cls-17" cx="199.35" cy="1105.14" rx="14.92" ry="7.38"/>
      <ellipse class="cls-17" cx="170.79" cy="1096.15" rx="14.92" ry="7.38"/>
      <ellipse class="cls-17" cx="145.12" cy="1110.04" rx="14.92" ry="7.38"/>
      <ellipse class="cls-17" cx="170.79" cy="1120.95" rx="14.92" ry="7.38"/>
      <ellipse class="cls-17" cx="199.35" cy="1110.04" rx="14.92" ry="7.38"/>
      <ellipse class="cls-17" cx="170.79" cy="1101.06" rx="14.92" ry="7.38"/>
    </g>
    <g>
      <ellipse class="cls-17" cx="143.68" cy="1185.67" rx="14.92" ry="7.38"/>
      <ellipse class="cls-17" cx="169.35" cy="1196.59" rx="14.92" ry="7.38"/>
      <ellipse class="cls-17" cx="197.91" cy="1185.67" rx="14.92" ry="7.38"/>
      <ellipse class="cls-17" cx="169.35" cy="1176.69" rx="14.92" ry="7.38"/>
      <ellipse class="cls-17" cx="143.68" cy="1190.58" rx="14.92" ry="7.38"/>
      <ellipse class="cls-17" cx="169.35" cy="1201.49" rx="14.92" ry="7.38"/>
      <ellipse class="cls-17" cx="197.91" cy="1190.58" rx="14.92" ry="7.38"/>
      <ellipse class="cls-17" cx="169.35" cy="1181.59" rx="14.92" ry="7.38"/>
    </g>
    <g>
      <ellipse class="cls-17" cx="366.01" cy="1187.16" rx="14.92" ry="7.38"/>
      <ellipse class="cls-17" cx="391.69" cy="1198.07" rx="14.92" ry="7.38"/>
      <ellipse class="cls-17" cx="420.25" cy="1187.16" rx="14.92" ry="7.38"/>
      <ellipse class="cls-17" cx="391.69" cy="1178.18" rx="14.92" ry="7.38"/>
      <ellipse class="cls-17" cx="366.01" cy="1192.07" rx="14.92" ry="7.38"/>
      <ellipse class="cls-17" cx="391.69" cy="1202.98" rx="14.92" ry="7.38"/>
      <ellipse class="cls-17" cx="420.25" cy="1192.07" rx="14.92" ry="7.38"/>
      <ellipse class="cls-17" cx="391.69" cy="1183.08" rx="14.92" ry="7.38"/>
    </g>
    <g>
      <polygon class="cls-17" points="265.2 564.44 281.03 549.47 295.15 564.44 265.2 564.44"/>
      <ellipse class="cls-17" cx="280.18" cy="564.87" rx="16.05" ry="5.13"/>
      <ellipse class="cls-17" cx="280.18" cy="566.26" rx="16.05" ry="5.13"/>
      <ellipse class="cls-17" cx="244.66" cy="553.21" rx="5.99" ry="3.74"/>
      <ellipse class="cls-17" cx="315.26" cy="553.21" rx="5.99" ry="3.74"/>
      <ellipse class="cls-17" cx="315.26" cy="570.01" rx="5.99" ry="3.74"/>
      <ellipse class="cls-17" cx="244.66" cy="572.15" rx="5.99" ry="3.74"/>
      <ellipse class="cls-17" cx="244.88" cy="555.4" rx="5.99" ry="3.74"/>
      <ellipse class="cls-17" cx="315.48" cy="555.4" rx="5.99" ry="3.74"/>
      <ellipse class="cls-17" cx="315.48" cy="572.2" rx="5.99" ry="3.74"/>
      <ellipse class="cls-17" cx="244.88" cy="574.34" rx="5.99" ry="3.74"/>
    </g>
    <polyline class="cls-18" points="361.98 778.52 77.65 660.66 203.61 778.52"/>
    <polyline class="cls-18" points="236.53 383.39 312.17 260.16 347.18 401.62"/>
    <line class="cls-18" x1="280.18" y1="518.17" x2="130.2" y2="543.86"/>
    <line class="cls-18" x1="261.32" y1="649.19" x2="411.3" y2="674.88"/>
    <line class="cls-18" x1="274.35" y1="455.87" x2="124.36" y2="481.56"/>
    <path class="cls-11" d="M336.35,995.05s19.4-18.49,41.66-19.78,42.23,15.05,42.23,15.05"/>
    <path class="cls-11" d="M141.05,995.05s19.4-18.49,41.66-19.78,42.23,15.05,42.23,15.05"/>
    <text class="cls-3"><tspan x="0" y="71.93">Diseño basado en la estru</tspan><tspan class="cls-36" x="202.74" y="71.93">c</tspan><tspan x="211.5" y="71.93">tu</tspan><tspan class="cls-48" x="228.26" y="71.93">r</tspan><tspan x="234.38" y="71.93" xml:space="preserve">a del misil R-7,  que fue un </tspan><tspan x="0" y="94.73">p</tspan><tspan class="cls-59" x="10.81" y="94.73">r</tspan><tspan class="cls-23" x="16.83" y="94.73">o</tspan><tspan class="cls-42" x="27.13" y="94.73">y</tspan><tspan x="35.89" y="94.73">e</tspan><tspan class="cls-36" x="45.41" y="94.73">c</tspan><tspan class="cls-54" x="54.17" y="94.73">t</tspan><tspan x="60.34" y="94.73">o militar s</tspan><tspan class="cls-23" x="137.23" y="94.73">o</tspan><tspan x="147.53" y="94.73">viéti</tspan><tspan class="cls-54" x="181.37" y="94.73">c</tspan><tspan x="189.77" y="94.73">o c</tspan><tspan class="cls-59" x="212.74" y="94.73">r</tspan><tspan x="218.76" y="94.73">eado du</tspan><tspan class="cls-48" x="283.8" y="94.73">r</tspan><tspan x="289.91" y="94.73">a</tspan><tspan class="cls-7" x="299.07" y="94.73">n</tspan><tspan class="cls-54" x="309.54" y="94.73">t</tspan><tspan x="315.72" y="94.73">e la década de </tspan><tspan x="0" y="117.53">1950 por </tspan><tspan class="cls-29" x="74.5" y="117.53">S</tspan><tspan x="83.98" y="117.53">e</tspan><tspan class="cls-53" x="93.5" y="117.53">r</tspan><tspan x="99.56" y="117.53">guéi Ko</tspan><tspan class="cls-59" x="159.37" y="117.53">r</tspan><tspan x="165.39" y="117.53">oli</tspan><tspan class="cls-23" x="184.75" y="117.53">o</tspan><tspan class="cls-52" x="195.05" y="117.53">v</tspan><tspan x="203.45" y="117.53">.</tspan></text>
    <text class="cls-3" transform="translate(1 161.62)"><tspan x="0" y="0">Esta </tspan><tspan class="cls-59" x="36.35" y="0">v</tspan><tspan x="45.29" y="0">ersión </tspan><tspan class="cls-42" x="98" y="0">r</tspan><tspan x="104.02" y="0">eali</tspan><tspan class="cls-23" x="131.63" y="0">z</tspan><tspan x="139.63" y="0">ó 13 lanzamie</tspan><tspan class="cls-7" x="248.89" y="0">n</tspan><tspan class="cls-8" x="259.36" y="0">t</tspan><tspan x="265.54" y="0">os en </tspan><tspan class="cls-54" x="311.61" y="0">t</tspan><tspan x="317.79" y="0">otal e</tspan><tspan class="cls-7" x="361.69" y="0">n</tspan><tspan x="372.16" y="0">t</tspan><tspan class="cls-59" x="378.45" y="0">r</tspan><tspan x="384.47" y="0">e 1960 y </tspan><tspan x="0" y="22.8">1964. </tspan><tspan class="cls-30" x="46.95" y="22.8">C</tspan><tspan x="57.76" y="22.8">on ella se lanza</tspan><tspan class="cls-59" x="176.98" y="22.8">r</tspan><tspan x="183" y="22.8">on seis misiones t</tspan><tspan class="cls-20" x="321.64" y="22.8">r</tspan><tspan x="327.93" y="22.8">ipulada</tspan><tspan class="cls-30" x="387.17" y="22.8">s</tspan><tspan x="394.49" y="22.8">, </tspan><tspan class="cls-54" x="402.45" y="22.8">t</tspan><tspan x="408.62" y="22.8">odas </tspan><tspan class="cls-54" x="0" y="45.6">c</tspan><tspan x="8.4" y="45.6">on </tspan><tspan class="cls-46" x="33.4" y="45.6">é</tspan><tspan x="42.86" y="45.6">xi</tspan><tspan class="cls-54" x="56.11" y="45.6">t</tspan><tspan x="62.28" y="45.6">o</tspan></text>
    <g>
      <path class="cls-14" d="M966.94,937.67c-5.23,5.68-9.62,9.66-11,16.71-1.14,5.85-4.73,11.61-8.54,16.37-1.67,2.08-6.59,1.56-10.55,2.31-1.4,8.18-8.38,4.48-13.39,4.79-5.38,.33-5.4-.12-7.29-5.82-8.05,2.62-12.26-1.69-14.83-8.82-1.62-4.49-3.07-9.12-5.35-13.26-2.28-4.15-5.51-7.78-8.32-11.64-.46,.1-.93,.19-1.39,.29-.15,1.71-.43,3.41-.43,5.12-.04,10.57,.06,21.14-.05,31.7-.06,5.72-2.88,10.13-6.16,10.25-3.55,.13-5.61-3.41-5.38-10.28,.54-15.91,1.34-31.8,1.85-47.71,.05-1.49-.96-3.3-2-4.51-8.79-10.26-17.63-20.48-26.61-30.58-2.49-2.8-6.76-4.67-7.93-7.82-1.16-3.12,.54-7.31,1.14-12.26-3.32,1.85-5.78,4.05-8.53,4.54-3.05,.54-7.28,.62-9.37-1.09-2.94-2.41-1.65-5.77,1.9-7.96,3.93-2.43,7.5-5.42,11.42-7.87,1.17-.73,3.22-1.02,4.46-.51,3.98,1.64,5.15-.14,5.94-3.67,1.09-4.86,2.73-9.6,3.91-14.44,.39-1.6,.06-3.38,.06-5-10.44-1.23-15.75-6.2-15.75-14.25,0-8.37,6.25-14.09,15.67-15.6,2.8-.45,5.2-3.44,7.82-5.3-3.25-7.89-7.32-15.45-9.47-23.52-3.01-11.29-4.52-22.98-6.91-34.45-.33-1.56-2.08-2.81-3.11-4.25-.99-1.38-2.63-2.78-2.71-4.24-.31-5.18-.05-10.39-.05-15.59,0-3.73,2.09-4.84,5.41-4.38,2.79,.39,4.2-.42,5.22-3.43,5.88-17.3,17.29-30.07,32.8-39.51,1.77-1.08,3.49-3.9,3.51-5.94,.22-16.28,.03-32.57-.05-48.86,0-1.04,.23-2.2-.15-3.09-.47-1.11-1.43-2.75-2.24-2.79-1.05-.04-2.79,1.07-3.1,2.04-.83,2.59-1.4,5.37-1.44,8.09-.15,10.05-.02,20.1-.05,30.16,0,1.56-.3,3.13-.46,4.69-.52,.07-1.04,.14-1.56,.21-.52-1.29-1.5-2.58-1.48-3.85,.18-12.61,.46-25.21,.89-37.81,.06-1.64,.63-3.95,1.79-4.7,2.11-1.38,4.95-2.67,7.25-2.35,1.4,.19,3.35,3.45,3.39,5.36,.33,15.94,.26,31.88,.34,47.82,.01,2.19,.18,4.37,.3,7.03,6.01-1.82,11.49-3.2,16.77-5.15,4.58-1.69,10.14-17.41,7.7-21.57-.59-1.01-2.52-1.43-3.92-1.72-2.18-.45-4.44-.57-6.66-1.91,8.08,1.21,14.59-8.51,24.22-1.71,0-7.34,0-13.62,0-19.9,0-1.91-.22-3.85,.11-5.7,.2-1.14,1.25-2.12,1.92-3.18,.63,.15,1.26,.29,1.89,.44,0,2.81-.01,5.63,0,8.44,.02,3.64-.12,7.29,.12,10.91,.29,4.44-1.86,10.23,6.75,10.63-.34,.49-.68,.97-1.02,1.46-1.61,.39-3.23,.77-6.49,1.56,2.67,3.56,4.95,6.61,7.76,10.38,6.88-1.8,9.27,3.9,12.05,9.2,.58,1.1,1.58,2.38,2.67,2.75,5.19,1.77,10.47,3.26,16.37,5.05,.13-2.2,.31-4,.32-5.81,.06-15.6,.08-31.2,.14-46.79,.01-3.45-.45-7.27,4.47-7.95,4.98-.69,7.45,2.09,8.32,6.53,.66,3.37,1.2,6.82,1.27,10.24,.17,8.84,.12,17.68-.02,26.52-.03,2-.79,3.98-1.22,5.97l-1.91-.09c-.24-1.66-.67-3.32-.68-4.98-.06-10.74,.16-21.49-.12-32.23-.09-3.46,.03-7.9-6.17-8.46-.34,2.77-.9,5.26-.92,7.76-.08,15.41,.07,30.82-.13,46.23-.05,3.77,1.21,5.84,4.45,7.8,21.4,12.93,33.33,31.82,36.11,56.82,2.6,23.39-3.56,44.83-13.07,65.7-.79,1.73-1.63,3.43-2.44,5.15-.07,.14,0,.34,0,.53,3.42,3.48,6.92,6.03,12.3,6.95,7.57,1.29,11.85,9.05,10.92,16.61-.83,6.7-6.66,11.37-15.86,11.86,.4,3.14,.45,6.34,1.25,9.33,3.2,11.98,6.53,23.94,10.06,35.83,1.02,3.42-.94,4.91-2.85,6.99-11.01,11.93-21.91,23.98-32.76,36.06-.69,.77-.99,2.18-.95,3.28,.58,16.59,1.27,33.18,1.86,49.77,.13,3.7-.93,7.84-5.01,7.65-2.23-.11-5.42-3.73-6.14-6.33-1.17-4.21-.8-8.89-.85-13.38-.09-8.81-.03-17.62-.03-27.85Zm-44.83-273.77c-10.13-.39-17.15,1.01-24.9,7.61-6.65,5.65-13.14,11.97-18.01,19.14-14.36,21.18-17.87,45.01-14.29,69.98,1.84,12.78,6.01,24.89,13.29,35.69,1.05,1.55,3.37,3.17,5.11,3.18,15.07,.04,30.14-.38,45.21-.46,12.83-.07,25.68-.32,38.47,.41,4.84,.27,7.27-.95,9.43-4.96,15.1-27.95,17.53-56.84,6.44-86.66-6.4-17.23-16.78-31.35-33.23-40.4-6.18-3.4-12.84-3.5-21.03-3.7,4.18,4.06,5.85,7.36,1.94,11.24,4.45,.79,8.43,1.1,12.17,2.23,18.37,5.55,29.43,18.16,32.42,36.83,2.65,16.5-3.31,30.55-16.71,40.64-14.59,10.99-31.55,10.67-48.2,7.14-19.15-4.07-32.67-21.69-32.76-40.43-.1-20.96,13.34-38.92,33.3-44.26,3.76-1.01,7.69-1.4,9.99-1.8,.5-4.15,.91-7.58,1.37-11.4Zm3.28,95.92c2.85,0,4.58,0,6.31,0,17.03-.08,31.48-9.35,37.47-24.66,6.38-16.32,2.96-31.16-8.95-43.6-12.92-13.51-29.49-15.04-46.68-11.61-28.09,5.6-41.83,39.66-25.46,62.8,9.32,13.17,22.57,18.24,37.31,17.08Zm83.28,115.22c-2.81-9.47-5.38-18.76-8.48-27.87-.47-1.39-3.35-2.77-5.13-2.79-17.84-.15-35.68-.01-53.53,.08-1.01,0-2.02,.33-1.58,.26,1.04,2.45,2.72,4.69,2.86,7.03,.38,6.39,.03,12.81,.16,19.22,.03,1.36,.51,3.38,1.46,3.93,4.17,2.45,11.97-.23,14.28-4.58-5.41-5.76-6.67-10.43-4.09-15.14,2.76-5.04,9.25-7.81,15.2-6.49,4.7,1.04,8.87,5.21,9.12,9.47,.52,9.2-5.69,12.39-13.35,14.03,2.11,3.51,17.4,4.94,23.12,2.38-.31-.76-.46-1.67-.97-2.27-3.55-4.16-2.84-9.09-2.5-13.89,.16-2.32,1.22-4.45,3.99-2.52,5.7,3.96,10.8,8.65,12.62,15.62,.92,3.54,2.61,4.5,6.83,3.52Zm-93.49-29.13c-.22-.49-.44-.98-.66-1.47-1.67,0-3.34,0-5,0-14.89-.04-29.77-.05-44.66-.12-11.29-.05-11.31-.09-14.43,10.64-1.94,6.66-3.8,13.35-5.69,20.03,.42,.4,.84,.8,1.26,1.19,1.57-1.06,4.09-1.8,4.56-3.22,2.14-6.43,5.86-11.51,11.34-15.34,1.34-.94,2.89-1.57,4.35-2.35,.56,1.68,1.74,3.42,1.57,5.02-.54,5.08-1.58,10.11-2.43,15.18,9.02,1.45,20.51-.07,22.03-3.02-10.56-4.03-13.66-7.3-13.16-13.85,.35-4.66,4.3-8.91,9.23-9.92,5.88-1.21,12.11,1.4,14.82,6.21,2.65,4.7,1.24,10.31-3.95,15.36,.88,1.52,1.79,3.07,3.15,5.41,.9-2.5,1.5-4.16,2.57-7.13,2.2,1.29,4.2,2.28,5.98,3.59,1,.74,1.62,2,2.41,3.02,.57-1.25,1.6-2.5,1.62-3.76,.1-6.4,.01-12.81-.15-19.21-.09-3.46,.26-6.4,5.25-6.25Zm-60.92-5.54h144.45c.52-5.16,.33-4.85-3.93-4.8-4.87,.06-9.75-.95-14.62-1.46-2.07-.22-4.26-.84-6.21-.43-5.79,1.2-11.41,2.5-17.35,.36-1.9-.68-4.6-.51-6.46,.33-7.34,3.33-20.3,2.23-22.38-8.56-.1-.49-.77-.88-1.27-1.41-6.36,12.46-11.36,14.12-25.21,8.83-.99-.38-2.46-.42-3.36,.05-6.22,3.25-12.42,1.83-18.71,.34-1.68-.4-3.81-.62-5.26,.07-5.04,2.4-10.09,3.57-15.57,2.01-3.63-1.03-4.81,.54-4.12,4.67Zm133.68-35.23c-40.95-3.21-81.82-3.28-122.86-.03,4.45,2.17,9.02,3.71,13.7,4.22,5.32,.58,10.74,.33,16.11,.27,2.37-.02,5.11,.22,7.04-.83,8.34-4.55,16.52-3.38,22.95,3.78,.53,.59,1.18,1.06,1.76,1.57,9.25-9.42,14.56-10.19,25.95-4.4,1.42,.72,3.55,.26,5.31,.08,4.42-.46,9.41-2.66,13.11-1.29,6.76,2.52,11.31-2.08,16.94-3.37Zm-127.25-66.06c-4.56,8.03-8.55,14.99-12.43,22-.36,.65-.3,1.76-.02,2.51,4.34,11.62,8.7,23.24,13.2,34.8,.42,1.07,1.9,2.51,2.84,2.47,3.63-.16,7.24-.84,11.45-1.41-11.5-18.69-16.26-38.33-15.04-60.37Zm116.78,60.71c3.21,.22,5.59-.08,7.63,.62,4.32,1.49,6.34-.28,7.83-4.1,3.2-8.19,6.72-16.26,9.9-24.46,2.31-5.95,3.09-11.59-1.95-17.11-2.56-2.81-3.57-7.03-5.29-10.6-.68-1.4-1.4-2.78-2.78-5.51,.89,22.66-4.26,42.24-15.34,61.16Zm10.19-110.63c.87,23.76,6.49,45.39,17.37,66.73,8.14-16.75-2.66-58.16-17.37-66.73Zm-122.37-.87c-17.5,15.76-23.56,49.57-17.26,67.56,11.18-21.2,16.69-43,17.26-67.56Zm37.54,268.98c3.66,11.26,4.86,12.12,15.51,11.96,5.87-.09,11.74-.05,17.6,.08,8.99,.21,12.62-2.86,14.13-12.04h-47.24Zm104.89-70.59c-.08-.39-.16-.79-.25-1.18h-161.69l-.24,1.24c2.15,.57,4.3,1.63,6.46,1.63,49.74,.09,99.49,.09,149.23,0,2.16,0,4.32-1.1,6.49-1.68Zm-41.69-18.34c5.12-.19,9.88-4.7,9.62-9.12-.23-3.98-4.72-7.58-9.28-7.42-5.36,.18-9.96,4.49-9.61,9,.3,3.9,4.97,7.71,9.27,7.54Zm6.72,113.46c4.11-8.19,2.28-51.98-1.29-55.48-.19,1.19-.44,2.14-.48,3.1-.34,9.47-.82,18.95-.9,28.43-.05,6.2,.38,12.41,.86,18.59,.14,1.82,1.18,3.58,1.8,5.37Zm-48.75-58.13s.09,0,.14,0c0,6.38-.13,12.76,.11,19.13,.05,1.27,1.53,2.48,2.34,3.72,.77-1.13,2.2-2.24,2.22-3.38,.24-12.76,.33-25.52,.22-38.27-.01-1.17-1.69-2.32-2.6-3.47-.81,1.22-2.28,2.41-2.33,3.65-.24,6.2-.11,12.41-.11,18.62Zm-37.25-71.86c-4.79-.1-8.73,3.23-8.85,7.48-.14,4.96,3.97,8.92,9.36,9.03,4.58,.09,9.17-4.02,9.09-8.13-.08-4.31-4.63-8.28-9.6-8.38Zm68.99,40.45c-4.2,15.48-8.23,30.35-12.27,45.22,6.38-10.83,11.69-22.02,16.94-33.23,3.2-6.84,3.17-6.86-4.67-11.99Zm-58.22,.21c-7.61,4.24-7.85,4.87-4.79,11.48,4.2,9.06,8.41,18.11,12.65,27.15,.72,1.54,1.59,3,2.4,4.5,.42-.19,.84-.39,1.26-.58-3.82-14.1-7.63-28.21-11.52-42.55Zm7.92,50.93c.41-.21,.83-.41,1.24-.62-.63-1.49-1.21-3-1.89-4.46-5.16-11.14-10.68-22.14-15.38-33.47-2.26-5.44-6.42-6-12-7.45,9.75,16,18.89,31,28.03,46Zm69.75-45.09c-.44-.54-.88-1.07-1.32-1.61-3.07,2.19-7.41,3.7-8.97,6.68-6.08,11.59-11.28,23.64-16.78,35.53-.55,1.19-.89,2.49-1.33,3.73,.38,.14,.75,.27,1.13,.41,9.09-14.91,18.18-29.83,27.27-44.74Zm-94.66,27.92c-2.37,18.32-2.77,36.71-2.12,55.88,5.35-4.44,6.58-41.63,2.12-55.88Zm39.38,15.58c2.36-19.19,.51-40.65-3.15-46.18-3.7,.57-4.7,2.78-4.06,6.27,2.45,13.3,4.81,26.61,7.21,39.92Zm12.04,.45c.45,.03,.89,.06,1.34,.08,2.31-13.5,4.41-27.03,7.03-40.46,.83-4.25-.9-5.61-5.19-6.7-3.71,15.67-2.15,31.47-3.19,47.08Zm4.48,3.04c.38,.07,.75,.15,1.13,.22,4.36-16.01,8.72-32.03,13.14-48.26-4.81-.22-6.57,1.49-7.01,5.34-.55,4.79-1.74,9.51-2.55,14.27-1.61,9.47-3.14,18.94-4.71,28.42Zm-67.15-247.23c6.89-9.06,13.63-17.94,20.38-26.82-7.07,3.51-13.75,7.85-20.24,12.46-.96,.68-1.39,2.72-1.33,4.09,.16,3.4,.76,6.78,1.19,10.26Zm95.92-27.13c-.25,.37-.5,.73-.75,1.1,6.65,9.04,13.31,18.07,19.83,26.93,.24-3.66,.62-7.6,.69-11.55,.02-1.24-.41-3.01-1.28-3.65-6.07-4.41-12.31-8.59-18.5-12.84Zm-60.37,225.35c-.72,.48-1.44,.96-2.16,1.45,4.25,15.78,8.5,31.57,12.97,48.14,.71-1.28,1.04-1.59,1-1.84-2.5-14.08-4.91-28.17-7.7-42.19-.41-2.05-2.69-3.72-4.1-5.56Zm-4.47,55.2c4.69,3.32,49.58,2.93,53.78-.98-18.77,.13-36.29-.76-53.78,.98Zm37.98-118.42c.5-.41,1-.83,1.49-1.24,.31-3.22,.9-6.45,.77-9.65-.05-1.15-1.79-3.11-2.83-3.16-2.09-.1-5.03,.21-6.11,1.56-.98,1.22-.65,4.49,.35,6.08,1.56,2.48,4.17,4.31,6.34,6.41Zm-25.76-.71c6.79-1.59,9.62-4.81,9.71-9.48,.07-3.94-2.95-3.64-5.32-4-2.42-.36-4.5,.11-4.41,3.37,.09,3.19,.02,6.39,.02,10.11Zm1.32,29.34c0,4.52-.22,9.14,.16,13.72,.09,1.14,2.14,2.12,3.28,3.17,.9-1.1,2.42-2.13,2.56-3.33,.36-3.06,0-6.2,.13-9.3,.18-4.05-1.77-5.2-6.13-4.26Zm67.49,32.39c-2.04,7.12-9.69,11.24-7.21,20.59,4.64-6.39,8.65-11.93,12.92-17.81-1.82-.88-3.32-1.61-5.72-2.78Zm-37.31-62.53c.72,.46,1.44,.92,2.15,1.38,2.6-2.66,5.33-5.21,7.7-8.06,.55-.66,.12-3.29-.35-3.44-2.58-.79-5.33-1.47-7.96-1.29-.62,.04-1.23,3.45-1.48,5.35-.25,1.99-.06,4.04-.06,6.06Zm-35.51-12.2c-2.95,.5-5.19,.66-7.27,1.32-1.11,.35-2.66,1.44-2.81,2.38-.59,3.82,5.88,8.79,10.08,8.05v-11.74Zm-29.76,95.04c2.31-7.44-2.65-11.3-4.89-16.07-1.82-3.86-4.26-4.67-7.63-1,3.96,5.4,7.92,10.8,12.52,17.07Zm5.06-92.78c1.43,9.09,6.49,12.03,12.62,7.65-1.81-7.02-4.78-8.88-12.62-7.65Zm72.6,7.85c6.85,3.81,12.21,.28,12.36-7.8-7.12-1.4-10.4,.61-12.36,7.8Zm-98.07,67.65c-.41,.37-.82,.74-1.23,1.11,6.74,7.73,13.47,15.47,20.21,23.2l1.51-1.34c-7.5-7.05-10.08-18.51-20.48-22.96Zm80.58-35.44c-4.25-.88-6.07,.32-5.87,4.29,.16,3.07-.29,6.19,.14,9.2,.18,1.25,1.92,2.28,2.95,3.41,.93-1.05,2.58-2.05,2.65-3.15,.3-4.57,.13-9.16,.13-13.76Zm57.73,35.63c-7,1.47-20.51,17.75-21.04,24.34,6.95-8.04,13.58-15.71,21.04-24.34Zm-73.32-242.89c-9.78-.84-11.2-.15-13.12,6.1,8.51,1.59,13.4-.56,13.12-6.1Zm61.62,177.92c1.76-2.85,3.25-4.96,4.38-7.24,.64-1.28,.67-2.87,.98-4.32-1.25-.25-2.66-1-3.71-.65-1.59,.53-3.51,1.51-4.23,2.86-1.07,2-1.23,4.49-1.87,7.2,1.37,.66,2.85,1.37,4.45,2.15Zm-55.82-177.78c.47,1.91,.57,4.63,1.26,4.8,4.09,.95,8.31,1.31,13.17,1.96-3.34-7.28-4.52-7.8-14.43-6.76Zm-70.89,166.67c-2.85,.91-6.33,1.35-5.71,5.56,.58,3.86,5.88,6.19,10.78,5.13-1.65-3.47-3.29-6.93-5.08-10.69Zm25.68,93.81c-.59,.36-1.18,.73-1.78,1.09,3.01,10.65,11.94,17.65,17.13,26.96,.41-.25,.82-.51,1.23-.76-5.53-9.1-11.06-18.2-16.59-27.29Zm-10.97-85.06c-2.32-5.11-1.98-12.01-11.14-9.39,2.04,4.02,3.95,7.78,6.03,11.87,1.91-.93,3.37-1.64,5.11-2.48Zm116.55,2.19c5.45,.57,10.86-1.9,10.79-5.39-.04-2.09-2.67-4.13-4.58-6.81-2.5,4.9-4.25,8.35-6.21,12.2Zm-68.95,50.45h12c-1.23-2.67-2.15-5.03-3.41-7.19-.49-.85-1.75-1.7-2.66-1.71-.86,0-2.05,.92-2.53,1.75-1.24,2.16-2.17,4.51-3.4,7.14Zm17.72-34.04c-3.68,5.43-6.54,4.64-9.6,.84-.6-.75-3.85-.7-4.38,.04-3.08,4.31-6,3.87-9.8-.89-.21,2.53-.31,3.82-.43,5.26h24.84c-.17-1.44-.32-2.65-.63-5.25Zm32.29,68.19c-.61-.37-1.22-.74-1.84-1.11-5.19,8.51-10.38,17.02-15.56,25.53,.39,.24,.78,.47,1.17,.71,5.45-8.35,13.15-15.34,16.23-25.13Zm-84.54-35.38c.02-.5,.03-.99,.05-1.49h-21.18c0,.5,0,.99,.01,1.49h21.12Zm102.3-.05l-.14-1.77c-7.14-.4-14.28-1.1-21.38,.17,0,.53,.02,1.06,.02,1.59h21.49Zm-67.22,10.48c-.7,6.46,3.26,5.86,6.9,5.86,4,0,4.33-2.41,3.98-5.86h-10.88Zm-82.28-157c.96,.12,1.91,.23,2.87,.35,.7-4.86,1.46-9.71,2.02-14.59,.06-.48-1.12-1.59-1.61-1.53-.81,.1-2.14,.86-2.2,1.45-.5,4.76-.76,9.55-1.09,14.32Zm18.46,137.87c-1.09,2.39-2.21,4.27-2.75,6.3-.19,.73,.92,2.52,1.6,2.6,1.34,.18,4.03-.58,4.01-.81-.23-3.47-.74-6.94-1.46-10.35-.05-.22-2.34,0-3.59,.1-.09,0-.13,.61-.21,1.04,1.05,.49,2.11,.98,2.39,1.11Zm37.57-53.61c.36-2,.62-3.47,.87-4.86-6.68-3.37-8.49-2.8-9.89,3.15,2.81,.53,5.62,1.06,9.02,1.7Zm61.92,.27c4.92-.95,7.83-1.51,11.11-2.15-1.86-4.41-4.29-6.73-8.4-4.03-1.28,.84-1.51,3.29-2.7,6.17Zm41.2,52.06c.01-.47,.02-.95,.04-1.42-1.07-.06-3-.41-3.09-.15-1.22,3.68-2.19,7.45-3.34,11.64h7.7c-1.28-3.33-2.27-5.87-3.44-8.92,.07-.04,1.1-.6,2.13-1.16Zm-134.33-56.05c6.71,2.98,7.91,2.65,10.11-2.55-6.32-3.16-7.41-2.92-10.11,2.55Zm48.78,66.16c-1.95-3.26-10.95-3.75-16.03,0h16.03Zm28-.08h16.6c-5.56-3.45-14.16-3.09-16.6,0Zm38.75-68.8c2.61,5.38,5.42,5.9,10.26,2.12-2.25-5.56-6.05-4.12-10.26-2.12Zm-4.7,7.68c-1.77,4-2.97,6.71-4.35,9.82,4.42,.39,7.01-1.57,7.89-5.13,.25-1.01-1.91-2.62-3.54-4.69Zm-12.24,71.52c5.3,4.85,8.47,4.62,12.49,0h-12.49Zm-85.38-.09c8.25,5.08,9.92,5.01,13.07,0h-13.07Zm2.26-70c-.52-.24-1.05-.48-1.57-.73-.84,1.51-2.73,3.41-2.34,4.46,1.16,3.07,3.48,5.32,7.62,4.52-1.34-2.99-2.52-5.62-3.71-8.25Zm73.61-4.94c.24-.53,.48-1.06,.72-1.59-2.69-1.87-5.38-3.74-8.99-6.25v6.5c2.87,.46,5.57,.9,8.27,1.33Zm-21.72-2.6c.24,.64,.48,1.28,.72,1.92,2.83-.53,5.71-.9,8.42-1.79,.37-.12-.12-2.86-.28-5.51-3.64,2.21-6.25,3.79-8.86,5.38Zm-8.87-.13c-2.79-1.53-5.58-3.07-8.6-4.73-1.51,6.72-.97,7.04,8.6,4.73Zm-82.67,47.43c-1.31,1.98-2.92,3.5-2.62,4.16,.68,1.49,2.29,2.56,3.52,3.81,1.03-1.12,3.04-2.42,2.88-3.32-.26-1.42-1.98-2.58-3.78-4.64Zm168.53-40.03c-.54-.3-1.08-.59-1.62-.89-1.29,3.69-2.59,7.38-3.99,11.4,4.28-.47,5.99-4.06,5.62-10.52Zm-99.48-12.61c-3.72,2.73-6.35,4.65-8.97,6.57,.25,.5,.51,.99,.76,1.49,2.7-.5,5.4-1,8.22-1.52v-6.55Zm-59.04,23.79c.24-.32,.48-.65,.71-.97-.67-2.94-1.27-5.9-2.05-8.82-.18-.67-.87-1.38-1.51-1.68-.36-.17-1.61,.53-1.58,.7,.45,2.8,.85,5.65,1.71,8.34,.32,1,1.78,1.63,2.72,2.42Zm150.77-22.84c-.16,.32-.33,.65-.49,.97,.89,1.19,1.68,2.48,2.7,3.56,.97,1.03,2.13,1.89,3.32,2.66,.16,.11,1.46-.93,1.38-1.17-.51-1.59-.87-3.56-2.01-4.53-1.2-1.01-3.23-1.04-4.9-1.49Zm-147.02,.81c-4.55-1.7-6.13,1.03-7.31,4.16-.19,.52,.43,1.86,.9,1.99,.75,.2,2.03,0,2.49-.55,1.4-1.65,2.51-3.54,3.92-5.6Zm-12.54,18.68c.44-.14,.88-.28,1.33-.42-.2-2.01-.24-4.05-.67-6-.16-.7-1.28-1.17-1.96-1.75-.45,.79-1.44,1.74-1.26,2.33,.63,2.02,1.68,3.91,2.57,5.85Zm74.88-178.66c.49,.06,.98,.12,1.47,.18v-8.43c-.49,0-.98,0-1.47,0v8.25Zm-63.1,166.66c.37,.41,.74,.83,1.11,1.24,3.55-.52,6.61-1.56,6.32-7.45-2.96,2.47-5.19,4.34-7.42,6.21Zm11.46,52.16c.29-3.24,.5-5.46,.7-7.67-.47-.13-.94-.27-1.41-.4-1.27,1.21-2.54,2.43-4.02,3.83,.82,.94,1.31,1.59,1.89,2.15,.46,.45,1.04,.78,2.83,2.1Zm-7.44,22.32c-.02,.46-.05,.92-.07,1.37h8.44c0-.58,0-1.16,0-1.74-1.66,0-3.33-.04-4.99,.02-1.13,.04-2.25,.23-3.38,.35Zm154.61-62.68l.89,.39c.96-1.85,2.14-3.64,2.78-5.59,.24-.73-.78-1.87-1.23-2.82-.69,.73-1.8,1.37-1.98,2.21-.4,1.89-.33,3.87-.46,5.81Z"/>
      <path class="cls-1" d="M922.26,664.54c-.45,3.72-.85,7.07-1.34,11.11-2.24,.39-6.07,.77-9.73,1.75-19.45,5.21-32.54,22.71-32.44,43.13,.09,18.26,13.26,35.43,31.92,39.39,16.23,3.45,32.75,3.76,46.97-6.95,13.06-9.84,18.87-23.53,16.29-39.6-2.92-18.19-13.7-30.47-31.59-35.88-3.64-1.1-7.52-1.4-11.86-2.17,3.81-3.78,2.18-7-1.89-10.95,7.98,.2,14.46,.29,20.49,3.61,16.03,8.82,26.14,22.58,32.38,39.37,10.8,29.06,8.43,57.2-6.28,84.44-2.11,3.9-4.48,5.1-9.19,4.83-12.46-.7-24.98-.47-37.48-.4-14.68,.08-29.37,.49-44.05,.45-1.69,0-3.96-1.58-4.98-3.1-7.09-10.52-11.16-22.32-12.95-34.77-3.5-24.33-.07-47.55,13.92-68.18,4.74-6.99,11.07-13.14,17.55-18.65,7.55-6.42,14.39-7.79,24.26-7.41Z"/>
      <path class="cls-1" d="M925.45,758.01c-14.36,1.13-27.27-3.81-36.35-16.64-15.95-22.54-2.56-55.73,24.81-61.19,16.75-3.34,32.89-1.85,45.48,11.31,11.6,12.13,14.93,26.58,8.72,42.49-5.83,14.92-19.91,23.95-36.51,24.03-1.69,0-3.38,0-6.15,0Zm23.67-57.37c2.41-.09,5.58-.56,5.53-5.05-.05-4.28-4.23-7.52-9.67-7.61-3.75-.06-6.26,1.35-6.22,5.49,.04,4.11,4.1,7.17,10.36,7.16Z"/>
      <path class="cls-1" d="M1006.6,870.27c-4.11,.96-5.75,.02-6.65-3.43-1.77-6.79-6.75-11.36-12.3-15.22-2.7-1.88-3.72,.2-3.88,2.46-.33,4.68-1.02,9.49,2.44,13.54,.5,.58,.64,1.47,.94,2.21-5.57,2.5-20.47,1.1-22.52-2.31,7.47-1.6,13.52-4.71,13.01-13.67-.24-4.16-4.3-8.21-8.88-9.23-5.8-1.29-12.12,1.41-14.81,6.32-2.51,4.59-1.29,9.14,3.98,14.75-2.25,4.24-9.85,6.85-13.91,4.46-.93-.55-1.39-2.51-1.42-3.83-.13-6.24,.21-12.5-.16-18.73-.13-2.28-1.77-4.46-2.78-6.85-.43,.08,.56-.25,1.54-.25,17.38-.09,34.77-.22,52.15-.07,1.73,.01,4.54,1.36,5,2.71,3.01,8.88,5.52,17.93,8.26,27.15Z"/>
      <path class="cls-1" d="M915.5,841.89c-4.86-.15-5.2,2.72-5.12,6.09,.16,6.24,.25,12.48,.15,18.72-.02,1.23-1.03,2.44-1.58,3.67-.77-1-1.37-2.22-2.35-2.94-1.73-1.27-3.69-2.24-5.83-3.5-1.04,2.9-1.62,4.51-2.5,6.95-1.33-2.28-2.21-3.79-3.07-5.27,5.06-4.92,6.43-10.38,3.85-14.97-2.64-4.69-8.71-7.23-14.44-6.05-4.81,.99-8.65,5.12-8.99,9.67-.48,6.38,2.54,9.56,12.82,13.49-1.49,2.87-12.68,4.35-21.47,2.94,.83-4.94,1.84-9.84,2.37-14.79,.17-1.56-.98-3.26-1.53-4.89-1.42,.75-2.93,1.37-4.24,2.29-5.34,3.74-8.96,8.69-11.05,14.95-.46,1.39-2.91,2.11-4.45,3.14-.41-.39-.82-.78-1.23-1.16,1.85-6.51,3.66-13.02,5.55-19.51,3.04-10.45,3.06-10.41,14.06-10.36,14.5,.07,29.01,.08,43.52,.12,1.62,0,3.25,0,4.87,0,.21,.48,.43,.95,.64,1.43Z"/>
      <path class="cls-1" d="M856.14,836.49c-.67-4.02,.48-5.55,4.02-4.55,5.34,1.51,10.27,.37,15.17-1.96,1.41-.67,3.49-.46,5.12-.07,6.13,1.45,12.16,2.84,18.23-.33,.87-.46,2.31-.42,3.27-.05,13.49,5.16,18.37,3.53,24.57-8.61,.48,.52,1.14,.89,1.24,1.37,2.03,10.51,14.66,11.59,21.81,8.34,1.81-.82,4.45-.99,6.29-.32,5.78,2.09,11.26,.82,16.9-.35,1.91-.4,4.03,.21,6.05,.42,4.75,.5,9.5,1.48,14.25,1.43,4.15-.05,4.33-.35,3.82,4.68h-140.75Z"/>
      <path class="cls-1" d="M986.4,802.17c-5.49,1.27-9.92,5.74-16.51,3.29-3.6-1.34-8.46,.81-12.77,1.26-1.72,.18-3.79,.63-5.18-.08-11.09-5.64-16.27-4.89-25.28,4.28-.57-.5-1.2-.96-1.71-1.53-6.27-6.97-14.23-8.11-22.36-3.68-1.88,1.03-4.55,.78-6.86,.81-5.24,.06-10.52,.3-15.7-.27-4.56-.5-9.01-2-13.34-4.11,39.99-3.17,79.81-3.09,119.71,.03Z"/>
      <path class="cls-1" d="M862.42,737.8c-1.19,21.47,3.45,40.62,14.65,58.82-4.1,.55-7.62,1.22-11.16,1.37-.91,.04-2.36-1.36-2.77-2.4-4.39-11.26-8.64-22.58-12.86-33.91-.27-.73-.33-1.81,.02-2.44,3.78-6.84,7.67-13.62,12.12-21.44Z"/>
      <path class="cls-1" d="M976.21,796.95c10.8-18.44,15.81-37.52,14.95-59.59,1.34,2.66,2.05,4,2.71,5.37,1.68,3.48,2.66,7.6,5.16,10.33,4.91,5.38,4.15,10.88,1.9,16.67-3.1,7.99-6.54,15.85-9.65,23.83-1.45,3.72-3.42,5.45-7.63,4-1.98-.68-4.3-.39-7.43-.61Z"/>
      <path class="cls-1" d="M986.14,689.16c14.34,8.34,24.86,48.69,16.92,65.02-10.6-20.79-16.07-41.87-16.92-65.02Z"/>
      <path class="cls-1" d="M866.9,688.31c-.55,23.93-5.92,45.18-16.81,65.83-6.15-17.53-.24-50.47,16.81-65.83Z"/>
      <path class="cls-1" d="M903.48,950.4h46.03c-1.47,8.95-5,11.94-13.77,11.74-5.72-.13-11.44-.17-17.15-.08-10.38,.15-11.55-.68-15.11-11.65Z"/>
      <path class="cls-1" d="M1005.68,881.61c-2.11,.57-4.21,1.63-6.32,1.64-48.47,.1-96.94,.1-145.4,0-2.1,0-4.19-1.04-6.29-1.59l.24-1.2h157.54c.08,.38,.16,.77,.24,1.15Z"/>
      <path class="cls-1" d="M965.05,863.74c-4.19,.16-8.74-3.55-9.03-7.35-.34-4.4,4.15-8.59,9.37-8.77,4.44-.15,8.81,3.35,9.04,7.23,.25,4.31-4.38,8.7-9.37,8.89Z"/>
      <path class="cls-1" d="M971.61,974.29c-.61-1.74-1.62-3.45-1.76-5.23-.47-6.03-.88-12.08-.84-18.12,.07-9.23,.54-18.47,.87-27.7,.03-.93,.28-1.85,.47-3.02,3.47,3.41,5.26,46.08,1.25,54.06Z"/>
      <path class="cls-1" d="M924.11,917.66c0-6.05-.13-12.1,.11-18.14,.05-1.21,1.48-2.37,2.27-3.56,.88,1.13,2.52,2.25,2.53,3.38,.11,12.43,.02,24.86-.21,37.29-.02,1.11-1.41,2.2-2.17,3.29-.8-1.21-2.24-2.39-2.28-3.63-.24-6.21-.11-12.43-.11-18.64-.04,0-.09,0-.13,0Z"/>
      <path class="cls-1" d="M887.81,847.64c4.85,.11,9.27,3.97,9.35,8.17,.08,4-4.4,8.01-8.86,7.92-5.25-.1-9.26-3.97-9.12-8.8,.12-4.15,3.96-7.39,8.62-7.29Z"/>
      <path class="cls-1" d="M955.04,887.05c7.64,5.01,7.68,5.02,4.55,11.69-5.12,10.93-10.29,21.83-16.5,32.38,3.93-14.49,7.86-28.98,11.95-44.06Z"/>
      <path class="cls-1" d="M898.31,887.26c3.78,13.98,7.5,27.72,11.22,41.46-.41,.19-.82,.38-1.23,.56-.78-1.46-1.63-2.88-2.33-4.38-4.13-8.81-8.23-17.63-12.32-26.46-2.98-6.44-2.75-7.06,4.66-11.19Z"/>
      <path class="cls-1" d="M906.03,936.89c-8.91-14.62-17.81-29.23-27.31-44.82,5.44,1.41,9.49,1.96,11.69,7.26,4.58,11.04,9.95,21.76,14.99,32.61,.66,1.43,1.23,2.9,1.84,4.35-.4,.2-.81,.4-1.21,.6Z"/>
      <path class="cls-1" d="M973.99,892.96c-8.86,14.53-17.72,29.06-26.58,43.59-.37-.13-.73-.27-1.1-.4,.43-1.21,.76-2.47,1.3-3.64,5.36-11.59,10.43-23.32,16.35-34.62,1.52-2.9,5.75-4.38,8.74-6.51,.43,.52,.86,1.04,1.29,1.57Z"/>
      <path class="cls-1" d="M881.76,920.16c4.35,13.89,3.15,50.13-2.07,54.45-.63-18.68-.24-36.59,2.07-54.45Z"/>
      <path class="cls-1" d="M920.12,935.34c-2.34-12.97-4.64-25.94-7.03-38.9-.62-3.39,.35-5.55,3.95-6.1,3.57,5.4,5.37,26.31,3.07,45Z"/>
      <path class="cls-1" d="M931.85,935.77c1.02-15.21-.51-30.61,3.11-45.87,4.17,1.06,5.86,2.39,5.05,6.53-2.56,13.09-4.61,26.28-6.85,39.43-.44-.03-.87-.05-1.31-.08Z"/>
      <path class="cls-1" d="M936.22,938.74c1.53-9.23,3.02-18.46,4.59-27.69,.79-4.64,1.96-9.24,2.49-13.91,.43-3.75,2.14-5.42,6.83-5.21-4.31,15.82-8.56,31.42-12.8,47.02-.37-.07-.73-.15-1.1-.22Z"/>
      <path class="cls-1" d="M870.79,697.85c-.42-3.39-1-6.69-1.16-10-.06-1.34,.36-3.32,1.29-3.99,6.32-4.5,12.84-8.73,19.72-12.14-6.57,8.65-13.15,17.3-19.86,26.13Z"/>
      <path class="cls-1" d="M964.25,671.41c6.03,4.14,12.11,8.21,18.02,12.51,.85,.62,1.27,2.35,1.25,3.55-.07,3.84-.44,7.68-.68,11.25-6.36-8.63-12.84-17.44-19.32-26.24,.24-.36,.49-.71,.73-1.07Z"/>
      <path class="cls-1" d="M905.43,890.99c1.38,1.8,3.6,3.43,4,5.42,2.72,13.66,5.07,27.39,7.51,41.11,.04,.24-.28,.55-.97,1.79-4.35-16.15-8.49-31.53-12.64-46.91,.7-.47,1.4-.94,2.1-1.41Z"/>
      <path class="cls-1" d="M901.08,944.78c17.04-1.7,34.11-.83,52.4-.96-4.09,3.81-47.83,4.19-52.4,.96Z"/>
      <path class="cls-1" d="M938.08,829.39c-2.11-2.05-4.65-3.83-6.17-6.25-.97-1.54-1.3-4.73-.34-5.92,1.05-1.32,3.92-1.62,5.96-1.52,1.02,.05,2.71,1.96,2.76,3.08,.13,3.12-.45,6.27-.75,9.4-.49,.4-.97,.8-1.46,1.21Z"/>
      <path class="cls-1" d="M912.98,828.7c0-3.63,.07-6.74-.02-9.85-.09-3.18,1.94-3.64,4.29-3.28,2.31,.35,5.25,.06,5.18,3.9-.08,4.56-2.85,7.69-9.46,9.24Z"/>
      <path class="cls-1" d="M914.26,857.29c4.25-.92,6.15,.2,5.97,4.15-.13,3.02,.23,6.08-.12,9.07-.14,1.16-1.63,2.17-2.5,3.24-1.12-1.02-3.11-1.98-3.2-3.09-.37-4.46-.15-8.97-.15-13.37Z"/>
      <path class="cls-1" d="M980.03,888.85c2.34,1.14,3.8,1.85,5.57,2.71-4.16,5.73-8.07,11.13-12.59,17.35-2.42-9.11,5.04-13.12,7.02-20.06Z"/>
      <path class="cls-1" d="M943.67,827.93c0-1.97-.19-3.97,.06-5.91,.24-1.86,.83-5.18,1.44-5.22,2.57-.17,5.25,.49,7.76,1.26,.46,.14,.88,2.71,.34,3.35-2.3,2.78-4.97,5.26-7.5,7.85-.7-.45-1.4-.89-2.1-1.34Z"/>
      <path class="cls-1" d="M909.08,816.04v11.44c-4.09,.72-10.4-4.12-9.82-7.84,.14-.92,1.65-1.98,2.74-2.32,2.03-.64,4.21-.8,7.08-1.28Z"/>
      <path class="cls-1" d="M880.08,908.65c-4.48-6.11-8.33-11.36-12.2-16.63,3.28-3.57,5.66-2.79,7.43,.98,2.19,4.64,7.02,8.41,4.77,15.65Z"/>
      <path class="cls-1" d="M885.01,818.25c7.64-1.2,10.53,.62,12.29,7.45-5.97,4.27-10.9,1.4-12.29-7.45Z"/>
      <path class="cls-1" d="M955.75,825.9c1.91-7,5.11-8.96,12.05-7.6-.15,7.86-5.37,11.31-12.05,7.6Z"/>
      <path class="cls-1" d="M860.19,891.81c10.14,4.33,12.65,15.5,19.95,22.37l-1.47,1.31c-6.56-7.53-13.13-15.07-19.69-22.6,.4-.36,.8-.72,1.2-1.08Z"/>
      <path class="cls-1" d="M938.71,857.28c0,4.48,.17,8.96-.12,13.4-.07,1.08-1.68,2.05-2.58,3.07-1-1.1-2.7-2.11-2.87-3.32-.41-2.94,.02-5.98-.14-8.97-.2-3.87,1.58-5.04,5.72-4.18Z"/>
      <path class="cls-1" d="M994.96,892c-7.27,8.41-13.73,15.88-20.5,23.72,.52-6.42,13.68-22.29,20.5-23.72Z"/>
      <path class="cls-1" d="M923.52,655.33c.27,5.4-4.5,7.49-12.79,5.94,1.88-6.09,3.26-6.76,12.79-5.94Z"/>
      <path class="cls-1" d="M983.56,828.69c-1.56-.75-3-1.45-4.34-2.09,.63-2.64,.78-5.07,1.82-7.01,.71-1.32,2.57-2.27,4.12-2.79,1.02-.34,2.4,.38,3.61,.63-.3,1.41-.33,2.95-.95,4.2-1.1,2.23-2.56,4.28-4.27,7.06Z"/>
      <path class="cls-1" d="M929.17,655.47c9.65-1.01,10.8-.51,14.06,6.58-4.73-.63-8.85-.98-12.83-1.91-.68-.16-.78-2.81-1.23-4.67Z"/>
      <path class="cls-1" d="M860.1,817.86c1.74,3.66,3.34,7.03,4.95,10.41-4.78,1.04-9.95-1.23-10.51-5-.61-4.1,2.79-4.53,5.56-5.42Z"/>
      <path class="cls-1" d="M885.12,909.27c5.39,8.86,10.78,17.73,16.16,26.59-.4,.25-.8,.49-1.2,.74-5.06-9.07-13.76-15.89-16.69-26.27,.58-.36,1.15-.71,1.73-1.07Z"/>
      <path class="cls-1" d="M874.43,826.39c-1.69,.82-3.12,1.51-4.98,2.42-2.03-3.99-3.89-7.65-5.88-11.57,8.93-2.55,8.59,4.18,10.86,9.15Z"/>
      <path class="cls-1" d="M988,828.52c1.91-3.75,3.62-7.11,6.05-11.89,1.86,2.62,4.42,4.6,4.46,6.64,.07,3.4-5.2,5.8-10.51,5.25Z"/>
      <path class="cls-1" d="M920.81,877.68c1.19-2.57,2.1-4.85,3.31-6.96,.47-.82,1.63-1.72,2.46-1.71,.89,0,2.11,.84,2.59,1.67,1.23,2.1,2.12,4.4,3.32,7h-11.69Z"/>
      <path class="cls-1" d="M938.08,844.51c.3,2.53,.45,3.72,.61,5.12h-24.21c.11-1.4,.22-2.66,.42-5.12,3.71,4.64,6.55,5.07,9.55,.87,.52-.73,3.68-.77,4.27-.04,2.98,3.7,5.77,4.48,9.36-.81Z"/>
      <path class="cls-1" d="M969.55,910.96c-3,9.54-10.5,16.35-15.81,24.49-.38-.23-.76-.46-1.14-.69,5.05-8.29,10.11-16.59,15.16-24.88,.6,.36,1.19,.72,1.79,1.09Z"/>
      <path class="cls-1" d="M887.17,876.49h-20.58c0-.48,0-.97-.01-1.45h20.64c-.02,.48-.03,.97-.05,1.45Z"/>
      <path class="cls-1" d="M986.85,876.44h-20.94c0-.52-.02-1.03-.02-1.55,6.91-1.24,13.87-.56,20.83-.17l.14,1.72Z"/>
      <path class="cls-1" d="M921.35,886.65h10.61c.34,3.37,.02,5.71-3.88,5.71-3.55,0-7.41,.59-6.73-5.71Z"/>
      <path d="M841.17,733.68c.32-4.66,.57-9.32,1.06-13.96,.06-.58,1.35-1.31,2.14-1.41,.48-.06,1.62,1.02,1.56,1.49-.55,4.75-1.29,9.48-1.97,14.22-.93-.11-1.86-.23-2.8-.34Z"/>
      <path class="cls-1" d="M859.16,868.01c-.27-.12-1.31-.61-2.33-1.08,.08-.42,.12-1.01,.2-1.01,1.21-.09,3.45-.31,3.5-.1,.7,3.32,1.2,6.7,1.42,10.08,.01,.22-2.6,.96-3.91,.78-.66-.09-1.75-1.83-1.56-2.54,.52-1.98,1.61-3.81,2.68-6.14Z"/>
      <path class="cls-1" d="M895.77,815.78c-3.32-.63-6.05-1.14-8.79-1.66,1.37-5.8,3.13-6.35,9.64-3.07-.24,1.35-.5,2.78-.85,4.73Z"/>
      <path class="cls-1" d="M956.1,816.04c1.16-2.81,1.38-5.19,2.63-6.02,4-2.63,6.38-.37,8.19,3.92-3.19,.62-6.03,1.17-10.82,2.09Z"/>
      <path class="cls-1" d="M996.24,866.77c-1,.55-2.01,1.09-2.07,1.13,1.15,2.97,2.1,5.45,3.35,8.7h-7.51c1.12-4.09,2.07-7.76,3.25-11.35,.08-.26,1.96,.08,3.01,.14-.01,.46-.02,.92-.04,1.38Z"/>
      <path class="cls-1" d="M865.35,812.16c2.63-5.33,3.69-5.57,9.85-2.49-2.14,5.07-3.31,5.39-9.85,2.49Z"/>
      <path class="cls-1" d="M912.88,876.62h-15.62c4.96-3.66,13.72-3.17,15.62,0Z"/>
      <path class="cls-1" d="M940.16,876.54c2.38-3.01,10.76-3.36,16.18,0h-16.18Z"/>
      <path class="cls-1" d="M977.92,809.5c4.1-1.95,7.8-3.35,9.99,2.07-4.71,3.68-7.45,3.18-9.99-2.07Z"/>
      <path class="cls-1" d="M973.34,816.99c1.59,2.01,3.69,3.58,3.45,4.57-.86,3.47-3.39,5.38-7.69,5,1.34-3.03,2.51-5.67,4.24-9.57Z"/>
      <path class="cls-1" d="M961.42,886.68h12.17c-3.92,4.5-7,4.73-12.17,0Z"/>
      <path class="cls-1" d="M878.23,886.59h12.73c-3.07,4.88-4.69,4.95-12.73,0Z"/>
      <path class="cls-1" d="M880.43,818.38c1.15,2.57,2.31,5.13,3.61,8.04-4.04,.78-6.3-1.41-7.42-4.4-.38-1.02,1.45-2.87,2.28-4.34,.51,.24,1.02,.47,1.53,.71Z"/>
      <path class="cls-1" d="M952.15,813.57c-2.63-.42-5.26-.85-8.05-1.3v-6.34c3.52,2.44,6.14,4.27,8.76,6.09-.23,.52-.47,1.03-.7,1.55Z"/>
      <path class="cls-1" d="M930.98,811.03c2.54-1.54,5.09-3.09,8.64-5.24,.16,2.58,.64,5.25,.28,5.37-2.64,.87-5.45,1.23-8.21,1.75-.23-.62-.47-1.25-.7-1.87Z"/>
      <path class="cls-1" d="M922.35,810.91c-9.33,2.25-9.85,1.93-8.38-4.61,2.95,1.62,5.67,3.12,8.38,4.61Z"/>
      <path class="cls-1" d="M841.8,857.12c1.75,2.01,3.43,3.13,3.68,4.52,.16,.88-1.8,2.14-2.8,3.24-1.2-1.21-2.77-2.25-3.43-3.71-.29-.64,1.28-2.12,2.55-4.05Z"/>
      <path class="cls-1" d="M1006.01,818.12c.36,6.29-1.3,9.79-5.47,10.25,1.37-3.91,2.63-7.51,3.89-11.11,.53,.29,1.05,.58,1.58,.86Z"/>
      <path class="cls-1" d="M909.08,805.83v6.38c-2.74,.51-5.37,.99-8,1.48-.25-.48-.49-.97-.74-1.45,2.56-1.88,5.12-3.75,8.74-6.41Z"/>
      <path class="cls-1" d="M851.55,829.01c-.92-.78-2.34-1.39-2.65-2.36-.83-2.62-1.22-5.39-1.67-8.13-.03-.16,1.19-.85,1.54-.69,.62,.29,1.3,.98,1.47,1.64,.76,2.84,1.34,5.72,1.99,8.59-.23,.32-.46,.63-.69,.95Z"/>
      <path class="cls-1" d="M998.46,806.75c1.63,.44,3.61,.47,4.78,1.45,1.12,.94,1.47,2.86,1.96,4.42,.07,.23-1.19,1.24-1.35,1.14-1.16-.75-2.29-1.59-3.24-2.59-.99-1.05-1.76-2.3-2.63-3.46,.16-.32,.32-.63,.48-.95Z"/>
      <path class="cls-1" d="M855.2,807.54c-1.37,2.01-2.46,3.85-3.82,5.46-.45,.53-1.69,.73-2.42,.54-.46-.12-1.07-1.43-.88-1.94,1.15-3.05,2.69-5.71,7.12-4.06Z"/>
      <path class="cls-1" d="M842.98,825.74c-.87-1.89-1.88-3.73-2.5-5.7-.18-.57,.79-1.5,1.23-2.27,.66,.56,1.76,1.03,1.91,1.71,.43,1.9,.46,3.89,.66,5.85-.43,.13-.86,.27-1.29,.4Z"/>
      <path class="cls-1" d="M915.94,651.66v-8.04c.48,0,.96,0,1.43,0v8.22c-.48-.06-.96-.11-1.43-.17Z"/>
      <path class="cls-1" d="M854.46,814.05c2.18-1.82,4.35-3.64,7.23-6.05,.28,5.74-2.69,6.75-6.15,7.26-.36-.4-.72-.81-1.08-1.21Z"/>
      <path class="cls-1" d="M865.63,864.88c-1.75-1.29-2.31-1.61-2.76-2.05-.56-.54-1.04-1.17-1.84-2.1,1.43-1.37,2.67-2.55,3.91-3.73,.46,.13,.91,.26,1.37,.39-.2,2.16-.39,4.32-.68,7.48Z"/>
      <path class="cls-1" d="M858.38,886.63c1.1-.12,2.19-.3,3.29-.34,1.62-.06,3.24-.02,4.86-.02,0,.56,0,1.13,0,1.69h-8.22c.02-.45,.05-.89,.07-1.34Z"/>
      <path class="cls-1" d="M1009.03,825.56c.12-1.89,.06-3.83,.44-5.66,.17-.82,1.26-1.44,1.93-2.15,.43,.93,1.43,2.04,1.2,2.75-.62,1.91-1.77,3.64-2.71,5.45l-.86-.38Z"/>
      <path class="cls-1" d="M949.12,700.63c-6.26,0-10.32-3.06-10.36-7.16-.04-4.15,2.46-5.56,6.22-5.49,5.44,.09,9.62,3.33,9.67,7.61,.05,4.49-3.12,4.96-5.53,5.05Zm2.15-4.51c-1.05-4.31-4.16-4.9-7.66-4.45-.47,.06-1.3,2.26-.96,2.74,2.22,3.06,5.08,3.96,8.62,1.71Z"/>
      <path class="cls-1" d="M951.27,696.12c-3.54,2.25-6.4,1.34-8.62-1.71-.35-.48,.49-2.68,.96-2.74,3.5-.46,6.62,.14,7.66,4.45Z"/>
    </g>
    <g>
      <path d="M835.38,1103.84c10.77-40.3,34.87-65.81,77.63-72.17,0-7.98-.15-16.2,.1-24.4,.06-2.12,1.37-4.2,2.1-6.3,.64,2.02,1.77,4.04,1.82,6.08,.21,8.22,.09,16.45,.09,24.67,3.15,.62,5.6,1.41,8.06,1.48,1.43,.04,3.55-.67,4.22-1.75,4.76-7.64,12.08-7.12,18.9-5.17,5.19,1.48,10.1,4.69,14.49,8,5.99,4.51,6.61,9.27,4.6,16.55-.48,1.73,1.06,4.66,2.55,6.18,12,12.22,19.6,26.77,23.77,43.25,.33,1.28,.89,2.51,1.33,3.73,5.66-.97,7.95,.19,8.6,5.57,.81,6.78,1.8,13.95-6.37,17.82-.91,.43-1.29,2.54-1.45,3.93-3.16,28.35-17.27,49.37-42.9,61.78-9.37,4.54-20.1,5.71-30.68,4.82-4.33-.37-5.59,1.15-5.38,5.33,.34,6.74,.3,13.5,.16,20.25-.03,1.36-1.21,2.69-1.86,4.03-.68-1.31-1.91-2.6-1.95-3.92-.2-6.75-.09-13.5-.1-20.25,0-1.63,0-3.27,0-4.81-7.67-.58-14.82-.4-21.68-1.76-28.65-5.65-50.33-27.99-55.56-56.68-.57-3.14-.74-6.35-1.3-9.48-.21-1.21-.73-3.02-1.58-3.35-7.99-3.13-6.98-10.03-6.49-16.19,.55-6.85,2.43-7.98,8.86-7.2Zm31.87,79.37c12.4-14.85,29.74-12.45,45.88-15,0-4.32,.19-8.53-.05-12.71-.27-4.66,1.63-9.74-2.8-13.8-.62-.57,.63-4.91,1.75-5.28,2.13-.71,5.09-.37,7.1,.68,.88,.46,.65,3.81,.28,5.73-.5,2.62-2.09,5.07-2.35,7.69-.41,4.18,.14,8.45-.18,12.64-.33,4.3,1.05,5.49,5.54,5.97,14.19,1.53,29.28,1.29,39.43,15.03,3.04-2.43,5.99-4.79,8.03-6.43-14.68-15.24-29.03-30.2-43.52-45.03-.79-.81-2.69-.71-4.07-.72-4.54-.04-9.1-.13-13.62,.19-2.07,.15-4.65,.64-6.03,1.97-13.75,13.21-27.31,26.63-40.9,40.01-.78,.77-1.37,1.72-2.21,2.79,2.74,2.23,5.2,4.22,7.73,6.28Zm110.7-16.23c.68-.14,1.35-.29,2.03-.43-.16-1.39-.01-2.91-.54-4.13-1.52-3.52-3.78-6.78-4.93-10.4-4.82-15.3-5.77-31.2-5.31-47.01,.28-9.63,2.2-19.39,4.74-28.73,1.99-7.3,2.86-7.26-3.23-12.37-.5,.34-1.14,.62-1.58,1.08-12.38,12.93-24.78,25.84-37.01,38.91-.93,1-.94,3.17-.84,4.76,.25,3.97,.63,7.95,1.33,11.86,.4,2.25,.93,4.96,2.42,6.44,7.06,7.02,14.46,13.7,21.76,20.48,7.04,6.53,14.11,13.04,21.16,19.55Zm-89.43-51.8c.02-.62,.03-1.23,.05-1.85,1.58-.18,3.18-.62,4.73-.48,2.63,.24,4.41-.23,5.4-3.08,.89-2.55,1.24-4.34-1.01-6.65-11.88-12.22-23.51-24.68-35.26-37.02-.87-.91-1.97-1.6-2.94-2.37-4.18,3.68-7.18,6.94-2.96,12.44,1.71,2.22,1.96,5.67,2.55,8.62,3.61,18.29,2.35,36.63-.36,54.83-1.22,8.17-2.14,16.8-8.38,23.38-.44,.47,.2,1.97,.34,2.99,1.15-.21,2.67-.02,3.4-.69,14.28-13.14,28.57-26.26,42.49-39.77,1.45-1.41,.96-5.26,.56-7.85-.13-.8-2.95-1.25-4.57-1.71-1.31-.38-2.68-.54-4.03-.79Zm66.59-50.59c-4.07,0-6.6,.1-9.11-.02-7.38-.36-13.5-2.8-18.3-8.99-4.39-5.66-5.03-11.03-1.68-17.15,.18-.33-.17-.94-.36-1.82h-8.71c0,4.88,.3,9.75-.08,14.57-.4,5.1,.66,7.7,6.63,7.62,5.69-.08,10.38,4.54,11.66,10.24,1.14,5.09-1.22,9.48-5.41,11.45-3.44,1.63-7.93,1.03-13.22,1.55,.88,1.92,2.18,3.99,2.76,6.25,.49,1.9,.16,4.01,.19,6.02-2.9,.02-5.8,.04-8.69,.05,.02-2.01-.23-4.07,.14-6.01,.47-2.49,2.02-4.87,2.08-7.32,.25-9.78,.1-19.57,.1-29.36,0-5.01,0-10.03,0-15.59-18.3,.53-32.79,7.99-45.67,19.1,.28,.87,.3,1.27,.5,1.49,13.08,13.87,26.16,27.74,39.28,41.56,.66,.69,1.74,1.64,2.46,1.52,6.36-1.09,14.04,1.64,18.13-6.26,.74-1.43,2.36-2.38,3.52-3.61,7.59-8.06,15.16-16.14,23.76-25.29Zm23.23,9.21c-1.39,3.66-3.14,6.32-3.33,9.09-.94,13.57-2.34,27.19-1.84,40.74,.38,10.12,3.26,20.17,5.37,30.18,.49,2.33,2.35,4.37,3.81,6.96,15.3-21.57,13.5-62.43-4.01-86.97Zm-130.63,86.23c11.2-10.28,13.79-75.35,3.69-84.92-17,22.52-18.63,64.02-3.69,84.92Zm65.35,12.01c-4.72,.27-8.84-.06-12.67,.84-8.42,1.98-16.9,4.06-24.96,7.13-4.55,1.73-4.4,5.84-.34,7.84,10.92,5.39,22.47,7.93,34.66,6.84,1.16-.1,3.13-1.42,3.16-2.24,.26-6.67,.15-13.36,.15-20.42Zm3.89,11.22c0,1.85,.21,3.73-.04,5.55-.64,4.68,1.36,6.07,5.93,6.18,9.75,.22,19.11-1.34,27.96-5.26,2.31-1.02,3.97-3.5,5.92-5.31-1.89-1.99-3.43-5.03-5.72-5.77-7.46-2.4-15.1-4.62-22.83-5.67-11.16-1.51-11.22-1.04-11.22,10.28Zm40.64-131.37c2.52-1.54,6.27-2.56,7.2-4.76,.86-2.06-.55-5.98-2.24-8.03-4.97-6.03-11.73-9.61-19.48-10.52-2.54-.3-6.67,.63-7.64,2.36-1.18,2.08-.47,5.93,.65,8.48,3.95,8.95,12.11,10.81,21.52,12.47Zm-26.81-14.3c-5.14,8.9-2.08,19.39,6.86,21.64,6.35,1.6,13.25,1.58,19.85,1.23,2.24-.12,4.32-3.44,6.47-5.3-20.7-1.06-25.53-3.87-33.18-17.57Zm43.44,135.44c2.19-1.35,2.15-2.95-.22-5.14-13.85-12.77-27.6-25.65-41.43-38.45-.83-.76-2.02-1.13-2.46-1.36,14.37,14.64,29.04,29.6,44.1,44.95Zm-118.76,.02l3.4,1.58c13.88-14.5,27.77-29,41.59-43.55,.64-.68,.66-1.95,1.2-3.71-1.61,.54-2.18,.57-2.49,.86-14.35,13.32-28.71,26.62-42.91,40.1-.92,.88-.55,3.12-.78,4.72Zm112.03-114.5c-1.55,.4-1.97,.38-2.16,.58-12.74,13.26-25.49,26.51-38.13,39.87-.64,.67-.36,2.2-.51,3.33,1.11-.43,2.53-.57,3.28-1.35,12.14-12.67,24.21-25.41,36.21-38.22,.77-.83,.77-2.38,1.31-4.23Zm-63.55,44.06c.25-.48,.49-.97,.74-1.45-.33-.56-.56-1.2-1-1.66-12.4-13.08-24.8-26.15-37.29-39.14-.67-.7-2.12-.65-3.21-.96,.31,1.14,.27,2.61,.98,3.37,11.97,12.79,24,25.51,36.11,38.17,.86,.9,2.43,1.14,3.67,1.68Zm17.2,1.46c-3.2,5.66-.59,8.33,6.4,9.41-3.61,1.77-5.31,2.59-6.92,3.38v11.18c4.86-.27,8.1-3.55,8.86-8.68,1.08-7.29-2.12-13.23-8.34-15.29Zm-3.55-37.95c-2.76,10.63,2.28,13.76,9.34,11.25,.75-7.1-3.18-11.83-9.34-11.25Zm-84,57.9c.4-4.14,.72-7.28,.99-10.43,.1-1.17,.31-2.42,.02-3.52-.26-.99-.99-2.39-1.75-2.55-.77-.17-2.2,.72-2.68,1.54-1.78,3.01-.23,10.86,3.42,14.96Zm163.32-.41c3.37-3.53,4.95-12.06,3.09-14.88-.46-.7-1.86-1.53-2.33-1.29-.84,.42-1.85,1.62-1.82,2.46,.16,4.32,.63,8.63,1.06,13.71Zm-95.37-3.45c1.03,5.64,3.53,7.94,8.17,7.71v-8.3c-2.85,.21-5.31,.39-8.17,.6Zm-.03-11.28c3.83,1.16,6.24,1.89,9.72,2.95-.68-3.34-1.14-5.6-1.82-8.95-2.86,2.17-4.84,3.67-7.9,5.99Zm14.34,8.32c-.5,.05-1,.1-1.5,.14v10.75c.5,0,1-.01,1.5-.02v-10.88Zm-.09-14.01c-.47,.02-.95,.04-1.42,.07v9.47c.47,0,.95,.01,1.42,.02v-9.55Zm15.24-31.19c1.21-4.99-1.39-8.4-6.66-8.92,2.18,2.92,4.41,5.91,6.66,8.92Z"/>
      <path class="cls-1" d="M867.24,1183.21c-2.53-2.06-4.99-4.06-7.73-6.28,.84-1.07,1.43-2.02,2.21-2.79,13.59-13.38,27.15-26.8,40.9-40.01,1.39-1.33,3.96-1.82,6.03-1.97,4.52-.32,9.08-.23,13.62-.19,1.39,.01,3.29-.09,4.07,.72,14.49,14.83,28.84,29.79,43.52,45.03-2.04,1.64-4.99,4-8.03,6.43-10.15-13.74-25.24-13.5-39.43-15.03-4.49-.48-5.86-1.67-5.54-5.97,.32-4.2-.23-8.46,.18-12.64,.26-2.61,1.85-5.07,2.35-7.69,.37-1.92,.6-5.27-.28-5.73-2.01-1.05-4.97-1.39-7.1-.68-1.12,.37-2.37,4.71-1.75,5.28,4.43,4.06,2.53,9.13,2.8,13.8,.24,4.18,.05,8.39,.05,12.71-16.13,2.55-33.47,.15-45.88,15Z"/>
      <path class="cls-1" d="M977.94,1166.97c-7.05-6.52-14.12-13.02-21.16-19.55-7.3-6.78-14.7-13.46-21.76-20.48-1.49-1.48-2.02-4.2-2.42-6.44-.7-3.91-1.08-7.89-1.33-11.86-.1-1.59-.09-3.76,.84-4.76,12.23-13.07,24.63-25.98,37.01-38.91,.44-.46,1.08-.74,1.58-1.08,6.1,5.11,5.22,5.08,3.23,12.37-2.54,9.33-4.46,19.1-4.74,28.73-.45,15.82,.49,31.72,5.31,47.01,1.14,3.62,3.4,6.88,4.93,10.4,.53,1.23,.38,2.75,.54,4.13-.68,.14-1.35,.29-2.03,.43Z"/>
      <path class="cls-1" d="M888.51,1115.18c1.34,.26,2.72,.42,4.03,.79,1.63,.47,4.45,.91,4.57,1.71,.41,2.59,.89,6.45-.56,7.85-13.92,13.51-28.22,26.63-42.49,39.77-.73,.67-2.25,.48-3.4,.69-.14-1.02-.79-2.52-.34-2.99,6.25-6.58,7.17-15.21,8.38-23.38,2.71-18.2,3.98-36.54,.36-54.83-.58-2.95-.84-6.4-2.55-8.62-4.23-5.5-1.23-8.76,2.96-12.44,.97,.77,2.07,1.46,2.94,2.37,11.75,12.35,23.38,24.8,35.26,37.02,2.24,2.31,1.89,4.09,1.01,6.65-.99,2.85-2.77,3.32-5.4,3.08-1.55-.14-3.15,.3-4.73,.48-.02,.62-.03,1.23-.05,1.85Z"/>
      <path class="cls-1" d="M955.1,1064.59c-8.6,9.16-16.17,17.23-23.76,25.29-1.16,1.23-2.78,2.18-3.52,3.61-4.09,7.9-11.78,5.17-18.13,6.26-.72,.12-1.81-.82-2.46-1.52-13.12-13.83-26.2-27.69-39.28-41.56-.21-.22-.22-.62-.5-1.49,12.89-11.11,27.37-18.58,45.67-19.1,0,5.57,0,10.58,0,15.59,0,9.79,.15,19.58-.1,29.36-.06,2.45-1.62,4.83-2.08,7.32-.37,1.94-.12,4.01-.14,6.01,2.9-.02,5.8-.04,8.69-.05-.03-2.02,.3-4.13-.19-6.02-.59-2.25-1.88-4.32-2.76-6.25,5.29-.51,9.78,.08,13.22-1.55,4.19-1.98,6.55-6.36,5.41-11.45-1.28-5.71-5.98-10.33-11.66-10.24-5.97,.09-7.03-2.51-6.63-7.62,.38-4.82,.08-9.69,.08-14.57h8.71c.19,.88,.54,1.5,.36,1.82-3.35,6.12-2.71,11.48,1.68,17.15,4.8,6.19,10.93,8.63,18.3,8.99,2.51,.12,5.03,.02,9.11,.02Z"/>
      <path class="cls-1" d="M978.33,1073.8c17.51,24.54,19.31,65.4,4.01,86.97-1.46-2.59-3.32-4.63-3.81-6.96-2.11-10.01-4.99-20.06-5.37-30.18-.5-13.54,.9-27.17,1.84-40.74,.19-2.77,1.94-5.43,3.33-9.09Z"/>
      <path class="cls-1" d="M847.7,1160.03c-14.94-20.89-13.31-62.4,3.69-84.92,10.1,9.57,7.51,74.64-3.69,84.92Z"/>
      <path class="cls-1" d="M913.05,1172.04c0,7.06,.11,13.75-.15,20.42-.03,.82-2,2.13-3.16,2.24-12.19,1.09-23.75-1.45-34.66-6.84-4.06-2-4.21-6.11,.34-7.84,8.06-3.07,16.54-5.15,24.96-7.13,3.83-.9,7.95-.57,12.67-.84Z"/>
      <path class="cls-1" d="M916.94,1183.26c0-11.33,.06-11.79,11.22-10.28,7.74,1.05,15.37,3.27,22.83,5.67,2.29,.74,3.83,3.78,5.72,5.77-1.96,1.81-3.62,4.29-5.92,5.31-8.86,3.93-18.21,5.49-27.96,5.26-4.56-.1-6.56-1.5-5.93-6.18,.25-1.82,.04-3.7,.04-5.55Z"/>
      <path class="cls-1" d="M957.58,1051.9c-9.41-1.66-17.57-3.53-21.52-12.47-1.12-2.54-1.83-6.4-.65-8.48,.98-1.73,5.1-2.66,7.64-2.36,7.75,.91,14.52,4.48,19.48,10.52,1.69,2.05,3.1,5.97,2.24,8.03-.92,2.2-4.68,3.22-7.2,4.76Z"/>
      <path class="cls-1" d="M930.78,1037.6c7.65,13.7,12.49,16.51,33.18,17.57-2.15,1.86-4.22,5.19-6.47,5.3-6.6,.35-13.5,.37-19.85-1.23-8.94-2.25-12-12.74-6.86-21.64Z"/>
      <path class="cls-1" d="M974.22,1173.04c-15.06-15.35-29.73-30.3-44.1-44.95,.43,.23,1.63,.59,2.46,1.36,13.83,12.8,27.58,25.68,41.43,38.45,2.37,2.19,2.41,3.79,.22,5.14Z"/>
      <path class="cls-1" d="M855.45,1173.07c.23-1.61-.14-3.85,.78-4.72,14.2-13.48,28.56-26.78,42.91-40.1,.32-.29,.88-.32,2.49-.86-.54,1.76-.56,3.04-1.2,3.71-13.82,14.56-27.71,29.05-41.59,43.55l-3.4-1.58Z"/>
      <path class="cls-1" d="M967.48,1058.57c-.54,1.84-.54,3.4-1.31,4.23-11.99,12.81-24.07,25.54-36.21,38.22-.75,.78-2.17,.91-3.28,1.35,.15-1.13-.12-2.66,.51-3.33,12.64-13.35,25.38-26.61,38.13-39.87,.19-.2,.61-.18,2.16-.58Z"/>
      <path class="cls-1" d="M903.93,1102.63c-1.24-.54-2.8-.78-3.67-1.68-12.11-12.65-24.15-25.38-36.11-38.17-.71-.76-.67-2.23-.98-3.37,1.09,.3,2.53,.26,3.21,.96,12.49,12.99,24.89,26.07,37.29,39.14,.43,.46,.67,1.1,1,1.66-.25,.48-.49,.97-.74,1.45Z"/>
      <path class="cls-1" d="M921.13,1104.09c6.22,2.06,9.41,8,8.34,15.29-.76,5.13-3.99,8.41-8.86,8.68v-11.18c1.61-.79,3.3-1.62,6.92-3.38-6.99-1.09-9.6-3.76-6.4-9.41Z"/>
      <path class="cls-1" d="M917.58,1066.14c6.15-.58,10.08,4.15,9.34,11.25-7.05,2.51-12.1-.62-9.34-11.25Z"/>
      <path class="cls-1" d="M833.58,1124.04c-3.65-4.11-5.2-11.95-3.42-14.96,.48-.82,1.91-1.71,2.68-1.54,.76,.17,1.49,1.57,1.75,2.55,.29,1.1,.08,2.35-.02,3.52-.27,3.15-.59,6.29-.99,10.43Z"/>
      <path class="cls-1" d="M996.9,1123.64c-.43-5.08-.9-9.39-1.06-13.71-.03-.84,.98-2.04,1.82-2.46,.46-.23,1.87,.6,2.33,1.29,1.86,2.82,.28,11.34-3.09,14.88Z"/>
      <path class="cls-1" d="M901.53,1120.19c2.87-.21,5.33-.39,8.17-.6v8.3c-4.65,.24-7.14-2.07-8.17-7.71Z"/>
      <path class="cls-1" d="M901.5,1108.91c3.06-2.32,5.04-3.82,7.9-5.99,.68,3.35,1.14,5.61,1.82,8.95-3.49-1.06-5.89-1.79-9.72-2.95Z"/>
      <path class="cls-1" d="M915.84,1117.23v10.88c-.5,0-1,.01-1.5,.02v-10.75c.5-.05,1-.1,1.5-.14Z"/>
      <path class="cls-1" d="M915.75,1103.22v9.55c-.47,0-.95-.01-1.42-.02v-9.47c.47-.02,.95-.04,1.42-.07Z"/>
      <path class="cls-1" d="M931,1072.03c-2.24-3.01-4.48-6-6.66-8.92,5.26,.52,7.86,3.92,6.66,8.92Z"/>
    </g>
    <line class="cls-18" x1="1085.78" y1="929.5" x2="935.8" y2="955.19"/>
    <line class="cls-18" x1="1080.19" y1="611.52" x2="930.21" y2="637.21"/>
    <line class="cls-18" x1="1129.22" y1="799.37" x2="979.24" y2="825.05"/>
    <text class="cls-2" transform="translate(1105.05 686.32)"><tspan x="0" y="0">Es</tspan><tspan class="cls-25" x="17.76" y="0">c</tspan><tspan x="26.6" y="0">otilla de escape</tspan></text>
    <line class="cls-18" x1="1097.06" y1="689.27" x2="947.08" y2="714.95"/>
  </g>
</svg>